<svg width="60" height="60" viewBox="0 0 60 60" fill="none" xmlns="http://www.w3.org/2000/svg">
<g clip-path="url(#clip0_29_63)">
<path d="M28.7344 0.033165C23.4094 0.255913 18.1734 1.91468 13.7344 4.78198C8.28282 8.30804 4.13438 13.455 1.89844 19.455C-0.131243 24.9052 -0.539056 30.8578 0.731257 36.4929C1.52344 40 2.90157 43.2701 4.85626 46.2701C8.44219 51.7725 13.6406 55.9099 19.8047 58.1611C24.3844 59.8389 29.3859 60.3744 34.2422 59.7156C40.7484 58.8341 46.8703 55.7867 51.4688 51.1374C52.0734 50.5261 57.0984 44.891 57.1266 44.7915C57.1359 44.7535 47.9813 36.5166 47.9203 36.5166C47.8969 36.5166 46.9828 37.5308 45.8906 38.7678C43.0969 41.9336 42.8203 42.237 42.225 42.782C39.4172 45.3365 36.2063 46.8436 32.4609 47.3507C31.0922 47.5355 29.0578 47.5213 27.6563 47.3175C22.6453 46.5924 18.3 43.9099 15.4453 39.7867C11.9484 34.7346 11.4 28.1422 14.0156 22.5734C15.6984 18.9952 18.6047 16.0569 22.1953 14.308C24.0094 13.4265 25.6078 12.9479 27.7266 12.6445C28.725 12.5071 31.0641 12.4881 32.0719 12.6208C35.1141 13.0095 37.725 13.9858 40.1484 15.6445C41.4094 16.5071 42.4031 17.4076 43.8094 18.981C44.5266 19.7772 44.5688 19.8389 44.4938 19.9099C44.4516 19.9526 43.1484 21.1137 41.6016 22.4881C40.0547 23.8673 38.7844 25.0095 38.775 25.0332C38.7656 25.0521 38.7938 25.0711 38.8359 25.0711C38.8734 25.0711 40.2656 25.3934 41.9203 25.782C43.575 26.1753 45.9094 26.7298 47.1094 27.0142C48.3094 27.2986 50.5125 27.8199 52.0078 28.1753C53.5031 28.5308 55.9031 29.0995 57.3422 29.4407C58.7813 29.7772 59.9672 30.0474 59.9766 30.0379C59.9906 30.0284 59.7563 25.4881 59.4609 19.9479C59.1656 14.4123 58.9031 9.42179 58.8703 8.86255C58.8422 8.30331 58.8047 7.70141 58.7906 7.52605L58.7578 7.20852L56.3203 9.38388C54.9797 10.5782 53.8734 11.5592 53.8594 11.5592C53.8453 11.564 53.55 11.2417 53.2031 10.8483C52.2938 9.81042 51.2109 8.67772 50.5078 8.02842C44.6484 2.59241 36.7547 -0.308067 28.7344 0.033165Z" fill="white"/>
</g>
<defs>
<clipPath id="clip0_29_63">
<rect width="60" height="60" fill="white"/>
</clipPath>
</defs>
</svg>
