<svg width="1162" height="386" viewBox="0 0 1162 386" fill="none" xmlns="http://www.w3.org/2000/svg">
<path d="M6.51587 193V378.176H582.086H1157.66V193V7.8244H582.086H6.51587V193ZM149.865 45.642V80.8514H79.2766H8.68783V45.642V10.4325H79.2766H149.865V45.642ZM477.832 45.642V80.8514H314.935H152.037V45.642V10.4325H314.935H477.832V45.642ZM827.518 45.642V80.8514H653.761H480.004V45.642V10.4325H653.761H827.518V45.642ZM1155.48 45.642V80.8514H992.587H829.69V45.642V10.4325H992.587H1155.48V45.642ZM149.865 119.973V156.487H79.2766H8.68783V119.973V83.4596H79.2766H149.865V119.973ZM477.832 119.973V156.487H314.935H152.037V119.973V83.4596H314.935H477.832V119.973ZM827.518 119.973V156.487H653.761H480.004V119.973V83.4596H653.761H827.518V119.973ZM1155.48 119.973V156.487H992.587H829.69V119.973V83.4596H992.587H1155.48V119.973ZM149.865 194.304V229.514H79.2766H8.68783V194.304V159.095H79.2766H149.865V194.304ZM477.832 194.304V229.514H314.935H152.037V194.304V159.095H314.935H477.832V194.304ZM827.518 194.304V229.514H653.761H480.004V194.304V159.095H653.761H827.518V194.304ZM1155.48 194.304V229.514H992.587H829.69V194.304V159.095H992.587H1155.48V194.304ZM149.865 267.331V302.541H79.2766H8.68783V267.331V232.122H79.2766H149.865V267.331ZM477.832 267.331V302.541H314.935H152.037V267.331V232.122H314.935H477.832V267.331ZM827.518 267.331V302.541H653.761H480.004V267.331V232.122H653.761H827.518V267.331ZM1155.48 267.331V302.541H992.587H829.69V267.331V232.122H992.587H1155.48V267.331ZM149.865 340.358V375.568H79.2766H8.68783V340.358V305.149H79.2766H149.865V340.358ZM477.832 340.358V375.568H314.935H152.037V340.358V305.149H314.935H477.832V340.358ZM827.518 340.358V375.568H653.761H480.004V340.358V305.149H653.761H827.518V340.358ZM1155.48 340.358V375.568H992.587H829.69V340.358V305.149H992.587H1155.48V340.358Z" fill="black"/>
</svg>
