<svg width="98" height="89" viewBox="0 0 98 89" fill="none" xmlns="http://www.w3.org/2000/svg">
<path d="M11.4844 86.2188C11.4844 82.3945 14.9297 79.2656 19.1406 79.2656C19.1406 75.4414 22.5859 72.3125 26.7969 72.3125V86.2188H11.4844ZM88.2766 57.85L53.5938 26.4219L18.9109 57.85L12.4797 52.0094L53.5938 14.6016L94.7078 52.0094L88.2766 57.85Z" fill="white"/>
<path d="M80.3906 81.3516V50.3406L53.5938 26.4219L26.7969 50.7578V86.2188H84.9844V85.5234C84.9844 83.2289 82.9172 81.3516 80.3906 81.3516Z" fill="white"/>
<path d="M45.1719 55.625H62.0156V86.2188H45.1719V55.625Z" fill="#71C2FF"/>
<path d="M62.0156 88.3047H45.1719C43.8703 88.3047 42.875 87.4008 42.875 86.2188V55.625C42.875 54.443 43.8703 53.5391 45.1719 53.5391H62.0156C63.3172 53.5391 64.3125 54.443 64.3125 55.625V86.2188C64.3125 87.4008 63.3172 88.3047 62.0156 88.3047ZM47.4688 84.1328H59.7188V57.7109H47.4688V84.1328Z" fill="#71C2FF"/>
<path d="M96.3922 50.4797L55.2016 13.1414C54.3594 12.3765 52.8281 12.3765 51.9859 13.1414L10.7953 50.4797C9.87656 51.314 9.87656 52.6351 10.7953 53.4L17.3031 59.3101C17.7625 59.7273 18.2984 59.9359 18.9109 59.9359C19.5234 59.9359 20.1359 59.7273 20.5187 59.3101L53.5938 29.3422L78.0938 51.5922V79.6133C75.8734 80.3086 74.1891 82.0469 73.6531 84.1328H29.0938V65.3594C29.0938 64.1773 28.0984 63.2734 26.7969 63.2734C25.4953 63.2734 24.5 64.1773 24.5 65.3594V70.5047C20.7484 71.339 17.8391 73.9812 17.0734 77.3883C13.3219 78.0836 10.3359 80.7953 9.49375 84.1328H3.0625C1.76094 84.1328 0.765625 85.0367 0.765625 86.2187C0.765625 87.4008 1.76094 88.3047 3.0625 88.3047H75.7969C77.0984 88.3047 78.0938 87.4008 78.0938 86.2187V85.5234C78.0938 84.3414 79.0891 83.4375 80.3906 83.4375C81.6922 83.4375 82.6875 84.3414 82.6875 85.5234V86.2187C82.6875 87.4008 83.6828 88.3047 84.9844 88.3047H87.2812C88.5828 88.3047 89.5781 87.4008 89.5781 86.2187C89.5781 85.0367 88.5828 84.1328 87.2812 84.1328H87.1281C86.5922 82.0469 84.9078 80.3086 82.6875 79.6133V55.764L86.5922 59.3101C87.0516 59.7273 87.5875 59.9359 88.2 59.9359C88.8125 59.9359 89.425 59.7273 89.8078 59.3101L96.3156 53.4C97.2344 52.6351 97.2344 51.314 96.3922 50.4797ZM19.1406 81.3515C20.4422 81.3515 21.4375 80.4476 21.4375 79.2656C21.4375 77.3187 22.6625 75.65 24.5 74.8851V84.1328H14.3172C15.1594 82.464 16.9969 81.3515 19.1406 81.3515ZM88.2766 54.9297L55.2016 24.9617C54.7422 24.5445 54.2063 24.3359 53.5938 24.3359C52.9812 24.3359 52.4453 24.5445 51.9859 24.9617L18.9109 54.9297L15.6953 52.0094L53.5938 17.5914L91.4922 52.0094L88.2766 54.9297ZM94.9375 84.1328C94.3283 84.1328 93.7441 84.3526 93.3134 84.7437C92.8826 85.1349 92.6406 85.6655 92.6406 86.2187C92.6406 86.772 92.8826 87.3025 93.3134 87.6937C93.7441 88.0849 94.3283 88.3047 94.9375 88.3047C95.5467 88.3047 96.1309 88.0849 96.5616 87.6937C96.9924 87.3025 97.2344 86.772 97.2344 86.2187C97.2344 85.6655 96.9924 85.1349 96.5616 84.7437C96.1309 84.3526 95.5467 84.1328 94.9375 84.1328Z" fill="#444B54"/>
</svg>
