<svg width="175" height="142" viewBox="0 0 175 142" fill="none" xmlns="http://www.w3.org/2000/svg">
<path d="M112.52 8.49217C104.142 9.48989 90.9314 13.5039 81.6381 17.866C76.3766 20.3255 74.232 21.6481 69.3423 25.5229C64.1667 29.6066 62.0507 31.0219 49.8979 38.6324C40.6904 44.3866 35.5433 47.7974 33.5417 49.468C27.5368 54.503 24.3627 61.2317 23.0188 71.6961C22.3897 76.7311 21.7892 80.3275 21.4175 81.186C21.2459 81.6036 20.7312 82.0677 20.2737 82.2533C19.8162 82.4621 18.6438 83.2278 17.643 83.9935C14.469 86.4066 13.2966 89.0517 13.3538 93.8546C13.4109 100.375 16.7279 111.813 22.7042 126.199C24.1912 129.749 24.906 130.77 26.6789 131.768C28.9665 133.021 31.1969 133.508 34.8856 133.508C41.2337 133.508 46.2377 131.652 48.0392 128.682C48.7827 127.406 48.7541 126.408 47.8962 123.902C47.4959 122.765 47.1814 121.791 47.1814 121.721C47.1814 121.675 47.6675 121.489 48.268 121.35C48.8399 121.187 52.357 120.19 56.0458 119.122C62.9085 117.15 66.5972 116.245 67.6266 116.245C68.0842 116.245 68.656 116.848 70.0572 118.844C72.8023 122.719 75.1185 126.547 75.9477 128.589C76.777 130.654 77.5204 131.28 79.8652 131.977C82.9534 132.928 85.4698 133.229 91.5033 133.345C98.2516 133.485 100.797 133.253 103.399 132.278C105.944 131.327 106.516 130.561 106.516 128.194C106.487 123.392 103.713 120.978 96.8219 119.842C93.5049 119.285 92.5327 118.913 91.8464 117.893C91.5033 117.405 91.2173 116.941 91.2173 116.895C91.2173 116.848 93.6193 116.848 96.5931 116.895C103.027 117.011 105.515 116.756 108.088 115.711C110.147 114.876 111.148 113.925 111.405 112.486C111.548 111.813 111.691 111.628 112.063 111.697C112.32 111.767 114.98 112.208 117.953 112.672C122.929 113.461 123.815 113.53 128.391 113.554C133.995 113.554 138.427 113.043 143.66 111.813C151.009 110.073 154.44 108.542 157.014 105.827C159.931 102.741 161.675 98.8664 161.675 95.3628C161.675 91.9984 160.188 89.5853 157.357 88.3556C154.612 87.149 151.181 87.3115 146.033 88.9124C144.804 89.3069 143.746 89.5621 143.66 89.5157C143.603 89.4461 143.86 88.7732 144.232 87.9843C146.72 82.8334 145.633 77.9608 141.544 76.1046C139.714 75.2925 137.112 75.3157 135.082 76.151C132.222 77.3575 128.991 80.9075 127.819 84.1791C127.618 84.7128 127.361 85.1536 127.247 85.1536C127.161 85.1536 126.932 84.8056 126.732 84.3647C126.132 83.0422 123.615 80.3507 122.243 79.585C119.498 78.0536 116.495 78.1464 114.236 79.8402C112.292 81.302 111.663 82.6941 111.691 85.6177C111.72 87.9843 111.834 88.518 113.092 91.0007C113.264 91.3719 113.064 91.3487 111.348 90.8151C107.373 89.6317 101.855 87.6363 99.0809 86.4066C94.6487 84.4343 94.8203 84.736 96.9649 82.9494C100.282 80.1651 102.426 77.1951 104.485 72.5082C106.373 68.3085 107.002 67.0556 107.402 66.7075C107.631 66.5451 108.517 66.3131 109.375 66.2435C113.721 65.8026 120.127 67.2876 125.417 69.9791C128.619 71.5801 129.363 71.7889 132.251 71.7889C134.367 71.7889 135.253 71.6497 137.255 71.0928C141.83 69.7935 146.291 67.1948 147.52 65.1298C148.836 62.9023 148.15 59.5147 144.861 51.9275C141.43 44.1314 141.687 45.2451 142.145 39.2124C142.859 29.4905 142.516 24.7108 140.829 22.0657C138.713 18.7013 133.766 14.3392 129.534 12.0886C126.846 10.65 123.672 9.53629 120.613 8.93302C118.754 8.56178 114.036 8.30655 112.52 8.49217ZM118.468 13.1327C118.84 13.2255 118.926 13.3879 118.783 13.6432C118.039 15.0817 116.867 18.2837 116.238 20.6039C114.436 27.1935 113.178 30.1634 111.777 31.3235C110.748 32.1588 109.661 32.2285 107.917 31.5788C105.715 30.7667 103.856 28.9105 100.082 23.7827C98.7949 21.9961 97.0792 19.8615 96.3072 19.0726C95.5351 18.2605 94.9346 17.5644 94.9918 17.518C95.1634 17.3788 100.482 15.7314 102.941 15.0353C105.801 14.2464 110.49 13.2487 112.52 12.9703C113.922 12.8079 117.439 12.9007 118.468 13.1327ZM126.675 15.8706C128.962 17.1003 132.051 19.5598 134.052 21.7177C136.969 24.8732 137.112 25.4997 136.797 33.7598C136.683 37.1938 136.569 41.3703 136.569 43.0409C136.54 46.3356 136.569 46.4285 139.199 52.3219L140.343 54.8974L138.856 55.5239C136.683 56.452 135.482 57.3337 134.567 58.7026C133.109 60.8837 133.28 63.2968 135.082 66.6379C135.253 66.9628 135.082 67.0556 134.195 67.1948C131.822 67.5892 130.792 67.4036 128.019 66.0347C122.157 63.1575 117.525 62.0206 110.376 61.719C99.3954 61.2549 92.4755 58.2154 86.6993 51.2314C86.2132 50.6513 84.2974 47.8206 82.4673 44.9667C80.6658 42.136 78.3497 38.7948 77.3203 37.5651C75.6618 35.5464 72.402 32.6925 70.6577 31.7412L69.9714 31.3468L73.8031 28.2608C77.9779 24.8964 80.4085 23.4579 85.8701 21.1144C89.1299 19.7222 89.2443 19.6758 89.9306 20.0471C90.9886 20.6039 92.9044 22.669 94.9346 25.4765C99.567 31.834 101.998 34.1775 105.372 35.5232C107.202 36.2425 107.574 36.3121 109.975 36.3121C112.349 36.3121 112.663 36.2657 113.979 35.616C117.01 34.0847 118.611 31.4164 120.699 24.4788C123.043 16.7059 123.787 14.8497 124.473 14.8497C124.673 14.8497 125.645 15.3137 126.675 15.8706ZM69.6569 37.0082C72.2304 39.0732 73.6315 40.8366 77.549 46.9389C82.5245 54.7118 85.4126 57.9137 90.1307 60.7909C92.6471 62.3454 96.5645 63.9696 99.6528 64.7585C100.768 65.037 101.712 65.3154 101.769 65.3386C101.969 65.4778 98.5662 72.8098 97.3366 74.8285C95.7925 77.4504 93.9624 79.2602 89.759 82.3693C82.6675 87.6363 80.723 89.5389 79.5792 92.184C78.8644 93.8314 78.893 99.0752 79.6078 101.86C81.6667 109.934 85.4126 118.403 88.2721 121.535C89.2443 122.603 91.3603 123.392 95.0204 124.064C99.9101 124.946 100.911 125.549 101.025 127.661C101.083 128.38 100.997 128.45 99.7957 128.705C97.9371 129.099 89.3301 129.076 86.0131 128.659C81.9812 128.171 81.4665 127.939 80.8088 126.431C79.5507 123.438 76.2909 118.496 68.9992 108.588C59.7631 95.966 56.1601 89.6781 55.5025 84.9216C55.2737 83.135 55.1593 82.903 54.3015 82.2997C53.558 81.7428 53.2149 81.65 52.357 81.766C50.6985 81.9749 50.0409 82.787 50.0409 84.6664C50.0409 89.1213 53.6724 96.1285 61.7933 107.428L65.0531 111.953L59.0482 113.6C55.7598 114.505 51.4992 115.688 49.6405 116.222C47.7533 116.756 46.0662 117.15 45.866 117.08C45.6944 117.034 45.4657 116.686 45.4085 116.315C45.3227 115.967 44.2933 112.324 43.0923 108.24C41.8913 104.157 40.576 99.7017 40.1757 98.3095C38.0596 91.0703 33.1985 84.9448 27.9371 82.9262C26.7933 82.4853 26.6789 82.1373 27.165 80.7451C27.3366 80.3043 27.7083 77.8448 28.0515 75.2925C29.281 65.4082 30.6822 60.8605 33.7704 56.568C36.2868 53.0876 39.375 50.7905 53.1863 42.1824C57.1895 39.6997 61.6217 36.9154 62.9943 36.0105L65.5392 34.3863L66.5686 34.8735C67.1405 35.152 68.5417 36.1033 69.6569 37.0082ZM142.373 60.4196C142.545 60.9997 142.688 61.8814 142.688 62.3919C142.688 63.1807 142.516 63.4128 141.487 64.132L140.286 64.9905L139.8 64.2249C138.599 62.3919 138.856 60.8605 140.486 59.9092C141.773 59.1899 142.002 59.2595 142.373 60.4196ZM138.971 80.049C139.628 80.3275 140.114 81.4644 140.114 82.6941C140.114 84.9448 138.37 88.3092 135.739 91.0703C134.167 92.7409 133.566 93.1121 131.85 93.3905L130.878 93.553L131.078 92.1144C131.593 88.3556 133.824 83.2742 135.682 81.4644C136.368 80.8147 137.97 79.817 138.342 79.817C138.399 79.817 138.685 79.9098 138.971 80.049ZM120.756 84.8288C121.299 85.5249 122.128 86.9402 122.614 87.9843C123.529 90.0958 124.559 93.437 124.359 93.6226C124.044 93.8546 122.243 93.2513 121.442 92.6481C117.782 89.8638 115.98 85.4785 117.639 83.4134C118.096 82.8334 118.154 82.8334 118.926 83.2046C119.383 83.4134 120.184 84.1559 120.756 84.8288ZM25.2492 86.801C27.0792 87.5667 27.9085 88.1468 29.3096 89.5853C32.4551 92.8337 33.8276 95.7572 36.4297 104.899C37.4877 108.519 38.8317 113.113 39.4322 115.085C40.0327 117.057 40.5188 118.705 40.4902 118.728C40.4616 118.774 39.9755 118.681 39.4322 118.542C38.8889 118.403 37.2304 118.287 35.7435 118.287C32.5123 118.287 29.9673 118.844 27.7655 120.05L26.3072 120.839L25.3064 118.264C20.9314 106.778 18.7296 98.1007 18.9297 93.0889C19.0727 89.887 19.6732 88.4484 21.4747 87.1258C22.7614 86.1745 23.5621 86.1049 25.2492 86.801ZM92.8472 88.6108C93.7623 89.0981 95.1634 89.7709 95.9926 90.0958C96.7933 90.4438 97.5368 90.8151 97.6511 90.9543C97.7655 91.0935 97.165 92.8337 96.3358 94.8291C94.6487 98.9592 94.7059 98.936 93.219 95.8036C91.4747 92.1144 90.1879 87.7059 90.8742 87.7059C91.0457 87.7059 91.9322 88.1004 92.8472 88.6108ZM154.526 92.2072C155.699 92.6017 156.127 93.4834 156.127 95.4556C156.127 99.0984 153.497 103.252 150.065 105.015C149.065 105.526 145.519 106.778 145.376 106.662C145.347 106.639 146.033 103.553 146.949 99.7945L148.55 92.9497L149.551 92.6249C150.437 92.3464 152.267 91.9752 153.211 91.9056C153.411 91.8824 154.011 92.0216 154.526 92.2072ZM87.0425 94.9683C88.3578 98.3327 91.3603 103.252 92.9902 104.76C94.5057 106.152 96.1642 106.802 99.7957 107.428C104.457 108.217 105.801 109.029 105.801 110.978C105.801 112.161 105.029 112.347 99.7672 112.486C95.192 112.579 90.9886 112.301 89.3873 111.744C88.5866 111.465 88.3864 111.187 87.5858 109.145C85.4412 103.832 84.183 98.3327 84.4404 95.618C84.5547 94.1794 85.3268 92.1144 85.7557 92.1144C85.8415 92.1144 86.442 93.3905 87.0425 94.9683ZM106.087 93.9474C109.661 95.1075 115.123 96.5925 117.896 97.103C119.097 97.335 120.098 97.6134 120.098 97.7062C120.098 97.799 119.726 98.4487 119.269 99.1216C116.581 103.159 113.75 107.312 113.693 107.382C113.636 107.405 112.778 107.289 111.777 107.126C110.29 106.848 109.718 106.616 108.689 105.804C107.059 104.551 105.143 103.832 101.769 103.228C100.31 102.973 99.0523 102.718 98.9951 102.695C98.9379 102.625 101.797 95.5716 102.798 93.3209C102.97 92.9265 103.084 92.9497 106.087 93.9474ZM142.316 95.7572C142.23 96.1285 141.544 99.0288 140.801 102.254L139.428 108.101L138.056 108.356C134.939 108.89 132.337 109.122 128.962 109.145C125.617 109.168 120.556 108.727 119.812 108.356C119.583 108.24 120.47 106.686 122.7 103.321L125.96 98.4487L128.533 98.3095C131.679 98.1471 134.681 97.5206 138.685 96.1749C142.345 94.9451 142.516 94.9451 142.316 95.7572ZM39.9183 123.392C41.2623 123.948 42.3203 124.877 42.8922 125.99C43.2639 126.733 43.2353 126.779 42.3775 127.406C40.2042 128.983 33.7132 129.656 30.7966 128.589C29.2525 128.032 28.4804 126.965 28.7663 125.805C29.0237 124.83 30.5678 123.693 32.3693 123.16C34.4567 122.579 38.2312 122.672 39.9183 123.392Z" fill="black"/>
<path d="M119.212 42.716C118.182 43.0177 117.982 43.7834 118.668 44.6419C119.355 45.5468 120.012 45.9876 121.9 46.8693C125.817 48.6559 129.134 47.4958 129.306 44.317C129.363 42.7392 129.048 42.6232 124.187 42.5536C121.699 42.5072 119.641 42.5768 119.212 42.716Z" fill="black"/>
</svg>
