<svg width="168" height="149" viewBox="0 0 168 149" fill="none" xmlns="http://www.w3.org/2000/svg">
<g clip-path="url(#clip0_79_30)">
<path d="M35.1094 7.12989V14.2598H17.5547H0V81.6299V149H51.5156H103.031V141.87V134.74H120.75H138.469V124.613V114.486L146.114 112.827C154.219 111.052 157.861 110.615 164.161 110.586H168V108.083V105.58L161.208 105.726C153.595 105.871 153.07 105.959 142.078 108.432L134.695 110.12H128.953C122.686 110.12 122.456 110.091 114.909 107.938C107.461 105.813 108.019 105.871 91.6125 105.726L76.7156 105.61L76.9453 104.533C77.2406 103.049 78.5531 101.157 79.8328 100.284C82.2281 98.6834 82.3922 98.6543 100.045 98.6543H116.32L117.994 97.9559C119.897 97.1701 121.931 95.2203 122.391 93.7361C122.916 92.1064 122.784 89.6037 122.095 88.3232C121.177 86.548 118.486 84.3945 117.141 84.3945C115.861 84.3654 115.73 83.9871 116.419 81.7463C116.812 80.5531 117.272 79.0398 117.469 78.3414C117.83 77.1482 117.862 77.1191 119.241 77.1191C120.028 77.1191 121.275 77.2938 121.997 77.5266C122.719 77.7594 127.772 80.5822 133.252 83.8416C138.731 87.0719 144.014 90.0693 145.031 90.4768L146.836 91.2334L157.434 91.3207L168 91.408V88.9344V86.4316H158.911C153.464 86.4316 149.264 86.3152 148.477 86.1115C147.755 85.9369 145.195 84.6564 142.833 83.2887L138.469 80.7568V40.3639V3.8147e-06H86.7891H35.1094V7.12989ZM132.562 41.0623C132.562 69.8438 132.464 77.1191 132.169 76.9445C131.939 76.799 130.462 75.9551 128.855 75.0529C125.77 73.2486 123.473 72.3756 120.98 72.0555C119.667 71.8809 119.437 71.7645 119.602 71.2988C119.7 71.0078 122.292 62.5393 125.344 52.4992C129.216 39.84 130.922 33.7287 130.922 32.6811C130.922 29.4217 128.625 26.2205 125.18 24.7363C122.85 23.7178 118.42 23.6887 115.927 24.7072C113.695 25.5803 111.497 27.6756 110.677 29.7127C110.316 30.5566 108.478 36.377 106.608 42.5756L103.195 53.8961L103.097 34.0779L103.031 14.2598H74.4844H45.9375V16.8789V19.4981H71.6953H97.4531V45.6895V71.8809H94.5984C90.4969 71.8809 88.1016 72.2883 85.4766 73.4814L83.1797 74.5H69.9891H56.7656V76.9736V79.4473H67.1672H77.6016L74.9766 81.7754L72.3516 84.1035H64.575H56.7656V86.5772V89.0508H61.7203H66.675L64.1156 91.4371C61.0641 94.3182 60.3422 95.6568 60.3422 98.2178C60.3422 102.612 63.7875 105.668 68.9062 105.813C70.9734 105.842 71.0391 105.871 71.2359 106.715C71.5312 108.083 72.5156 109.335 73.8281 109.975C74.9437 110.528 75.6 110.586 80.4891 110.586H85.9031L85.2797 112.681C84.4922 115.417 84.4922 117.454 85.3125 119.375C85.9359 120.888 87.3797 122.518 88.8234 123.42C89.5125 123.856 89.5453 123.914 89.1187 125.37L88.6594 126.883L90.0047 127.203C90.7594 127.348 91.9078 127.61 92.5312 127.785C94.2703 128.192 94.4344 128.134 94.6641 126.941C94.9266 125.486 95.1234 125.253 96.4031 125.049L97.4531 124.875V134.449V144.053H51.5156H5.57812V81.7754V19.4981H23.1328H40.6875V12.2227V4.94727H86.625H132.562V41.0623ZM123.047 29.5672C124.228 30.2074 125.081 31.517 125.081 32.7393C125.081 33.4668 122.653 42.2555 121.898 44.1471C121.8 44.3799 120.389 44.0889 117.305 43.1576C113.695 42.11 112.875 41.7607 113.006 41.3824C113.105 41.0914 113.794 38.8506 114.516 36.377C116.091 31.1678 116.452 30.4402 117.895 29.6836C119.208 28.9561 121.767 28.927 123.047 29.5672ZM115.828 48.1631C117.895 48.7742 119.733 49.3563 119.897 49.5018C120.258 49.7928 119.109 53.8379 118.65 53.8379C118.355 53.8379 110.217 51.5389 110.02 51.3934C109.758 51.2188 111.431 46.8535 111.694 46.9408C111.891 46.999 113.761 47.552 115.828 48.1631ZM113.039 57.7084C115.402 58.4068 117.305 59.0471 117.305 59.1053C117.305 59.1635 114.942 66.9918 112.055 76.4498L106.805 93.707H101.916C97.4531 93.707 97.0594 93.6779 97.1906 93.1832C101.292 79.5055 108.445 56.457 108.609 56.457C108.708 56.457 110.709 57.0391 113.039 57.7084ZM95.0578 80.5822L94.0406 84.0453L92.4328 84.2199C91.5469 84.3072 89.8406 84.7729 88.6594 85.2676C86.7891 86.0533 85.4437 87.0719 78.2578 93.416C70.5469 100.197 69.9234 100.691 68.8406 100.691C67.9219 100.691 67.4625 100.488 66.8062 99.7893C65.1328 98.0432 65.0016 98.1887 76.5516 87.9449C88.6922 77.1191 88.6594 77.1191 93.2531 77.1191H96.075L95.0578 80.5822ZM101.391 111.052C101.391 111.808 99.7172 117.046 99.1922 117.949C98.5031 119.142 96.8953 119.898 95.025 119.898C92.925 119.898 91.4484 119.084 90.7594 117.541C90.1687 116.29 90.1687 116.29 91.5797 111.663L91.9078 110.586H96.6328C100.8 110.586 101.391 110.644 101.391 111.052ZM113.859 113.06C120.389 114.893 123.178 115.359 128.198 115.359L132.562 115.388V122.43V129.502H117.797H103.031V125.835C103.031 122.576 103.097 122.081 103.72 121.324C104.541 120.306 105.295 118.414 106.509 114.427L107.395 111.43L108.412 111.634C108.97 111.721 111.431 112.39 113.859 113.06Z" fill="black"/>
<path d="M10.8281 36.0859V48.3086H46.1016H81.375V36.0859V23.8633H46.1016H10.8281V36.0859ZM75.7969 36.0859V43.0703H46.1016H16.4063V36.0859V29.1016H46.1016H75.7969V36.0859Z" fill="black"/>
<path d="M21.6562 36.0859V38.7051H24.4453H27.2344V36.0859V33.4668H24.4453H21.6562V36.0859Z" fill="black"/>
<path d="M32.4844 36.0859V38.7051H35.2734H38.0625V36.0859V33.4668H35.2734H32.4844V36.0859Z" fill="black"/>
<path d="M43.3125 36.0859V38.7051H46.1016H48.8906V36.0859V33.4668H46.1016H43.3125V36.0859Z" fill="black"/>
<path d="M54.1406 36.0859V38.7051H56.9297H59.7187V36.0859V33.4668H56.9297H54.1406V36.0859Z" fill="black"/>
<path d="M64.9688 36.0859V38.7051H67.7578H70.5469V36.0859V33.4668H67.7578H64.9688V36.0859Z" fill="black"/>
<path d="M39.5391 64.6055L27.0703 75.6641L25.3641 74.1508L23.625 72.6084L21.5906 74.4418L19.5234 76.2461L23.2969 79.5928L27.0703 82.9395L41.5734 70.0766C49.5797 62.9758 56.1094 57.0391 56.1094 56.8936C56.1094 56.5152 52.7625 53.5469 52.3359 53.5469C52.1391 53.5469 46.3969 58.5232 39.5391 64.6055Z" fill="black"/>
<path d="M10.8281 76.8281V91.3789H27.2344H43.6406V84.1035V76.8281H40.6875H37.7344V81.6299V86.4316H27.0703H16.4063V76.9736V67.5156H24.6094H32.8125V64.8965V62.2773H21.8203H10.8281V76.8281Z" fill="black"/>
<path d="M56.7656 67.2246V69.8438H74.4844H92.2031V67.2246V64.6055H74.4844H56.7656V67.2246Z" fill="black"/>
<path d="M39.5391 105.348L27.0703 116.406L25.3641 114.893L23.625 113.351L21.5578 115.184L19.5234 116.988L23.3953 120.393L27.2344 123.827L41.6719 111.022C49.6125 103.98 56.1094 98.0723 56.1094 97.9268C56.1094 97.6357 52.4672 94.2891 52.1719 94.2891C52.0734 94.2891 46.3969 99.2654 39.5391 105.348Z" fill="black"/>
<path d="M10.8281 117.861V132.412H27.2344H43.6406V124.991V117.57H40.6875H37.7344V122.372V127.174H27.0703H16.4063V117.716V108.258H24.6094H32.8125V105.784V103.311H21.8203H10.8281V117.861Z" fill="black"/>
<path d="M51.1875 134.595V137.068H66.2812H81.375V134.595V132.121H66.2812H51.1875V134.595Z" fill="black"/>
<path d="M86.625 134.595V137.068H89.4141H92.2031V134.595V132.121H89.4141H86.625V134.595Z" fill="black"/>
</g>
<defs>
<clipPath id="clip0_79_30">
<rect width="168" height="149" fill="white"/>
</clipPath>
</defs>
</svg>
