<svg width="163" height="163" viewBox="0 0 163 163" fill="none" xmlns="http://www.w3.org/2000/svg">
<path d="M24.0361 0.413846C21.2982 1.49627 19.5154 3.15174 18.3375 5.69861C17.7008 7.09939 17.6689 7.67244 17.6689 16.873V26.583L18.5604 28.3976C19.4836 30.3078 21.8395 32.6637 23.1447 32.982C23.877 33.173 23.877 33.2367 23.877 37.7256V42.2781L15.727 53.0387C7.13125 64.4359 5.63496 66.8873 5.09375 70.3574C4.90273 71.6627 4.77539 84.3015 4.77539 104.263C4.77539 139.219 4.74356 138.104 6.71738 142.052C7.92715 144.44 11.0471 147.655 13.2119 148.769C16.9686 150.648 15.8543 150.584 45.0479 150.584H71.8537L72.7451 151.953C75.3238 155.837 80.0992 159.625 84.6199 161.376C88.3129 162.777 90.5096 163.095 95.1258 162.904C99.4236 162.745 102.098 162.109 105.218 160.517C107.542 159.371 145.713 137.308 147.4 136.162C152.653 132.565 156.633 126.134 157.811 119.162C158.256 116.52 158.288 115.564 157.97 112.763C156.728 101.62 149.342 93.0883 138.646 90.414C136.194 89.8092 135.207 89.7137 131.482 89.841C125.752 90.0639 123.651 90.7642 116.106 95.1258C112.922 96.9404 109.547 98.8824 108.656 99.3918L106.969 100.347V85.575C106.969 69.5297 106.905 69.0521 105.122 65.582C104.645 64.6269 100.538 58.9283 96.049 52.9431L87.8672 42.0234V37.7574V33.4914L89.268 32.6637C91.3055 31.4857 93.2156 29.1617 93.7887 27.1879C94.1707 25.8508 94.2344 23.8133 94.1707 16.1726C94.0752 7.00389 94.0752 6.81287 93.3111 5.31658C92.1969 3.18357 90.2867 1.40076 88.2811 0.636698C86.6256 -2.12638e-05 85.7978 -2.12638e-05 55.7766 0.0318147C32.982 0.0318147 24.7365 0.159158 24.0361 0.413846ZM85.0656 6.68553C85.7023 6.87654 86.5301 7.38592 86.9121 7.86346C87.517 8.62752 87.5488 9.10506 87.5488 16.873C87.5488 24.641 87.517 25.1185 86.9121 25.8826C86.5301 26.3601 85.7023 26.8695 85.0656 27.0605C83.2828 27.5381 27.8883 27.4744 26.4238 26.965C24.3863 26.2646 24.1953 25.4369 24.1953 16.873C24.1953 8.30916 24.3863 7.48142 26.4238 6.78103C27.8883 6.27166 83.2828 6.20799 85.0656 6.68553ZM81.1816 36.9297V40.1133H66.3779C49.9187 40.1133 50.3645 40.0496 49.6641 42.2144C49.3775 43.0103 49.3775 43.5834 49.6641 44.3793C50.3645 46.5441 49.8551 46.4805 67.1738 46.4805H82.7734L90.9234 57.3683C98.7551 67.8105 99.6146 69.084 100.092 71.0578L100.283 71.9492H56.0312C13.1801 71.9492 11.7793 71.9174 11.7793 71.3443C11.7793 69.8799 13.0846 67.8742 21.5529 56.6043L30.5625 44.5385V39.1582V33.7461H55.8721H81.1816V36.9297ZM100.283 91.2736V104.263L91.9422 109.038C87.3578 111.649 82.3914 114.578 80.8951 115.501C77.7752 117.443 74.6871 120.308 72.8725 122.95L71.599 124.797H41.5459H11.4609V101.557V78.3164H55.8721H100.283V91.2736ZM137.213 96.9404C143.707 98.6596 148.801 103.721 150.775 110.312C151.539 112.89 151.539 117.634 150.775 120.149C149.502 124.415 147.018 128.044 143.771 130.336C141.702 131.801 126.93 140.396 126.484 140.396C126.229 140.396 107.86 108.847 107.669 108.115C107.605 107.828 121.55 99.6146 125.02 97.9273C127.917 96.4947 133.775 96.0172 137.213 96.9404ZM110.853 127.312C115.883 136.035 120.085 143.357 120.181 143.644C120.308 143.994 117.984 145.49 111.107 149.438C106.046 152.367 101.047 155.041 100.029 155.423C97.4498 156.346 92.1969 156.569 89.4908 155.869C85.957 154.977 83.4738 153.545 80.8314 150.902C76.9475 147.082 75.1328 142.816 75.1328 137.531C75.1328 132.151 76.8201 128.171 80.6723 124.351C82.9645 122.091 84.2061 121.263 92.165 116.647C97.0678 113.813 101.238 111.489 101.397 111.458C101.588 111.458 105.823 118.589 110.853 127.312ZM68.8293 132.501C68.5428 133.902 68.5428 141.224 68.8611 142.689L69.1158 143.898H44.1564C16.0771 143.898 17.5098 144.026 14.6764 141.479C12.6389 139.664 11.7475 137.563 11.5246 134.125L11.3654 131.482H40.2088H69.084L68.8293 132.501Z" fill="black"/>
<path d="M37.9803 40.6863C36.9297 41.5141 36.484 43.0422 36.9297 44.3793C38.0439 47.7858 43.2969 46.8944 43.2969 43.2969C43.2969 41.4186 41.9916 40.1133 40.0496 40.1133C39.2537 40.1133 38.3941 40.368 37.9803 40.6863Z" fill="black"/>
<path d="M53.8982 87.4852C52.7521 88.3766 52.5293 89.5545 52.5293 94.5527V99.2645L47.3719 99.3918C42.9785 99.4555 42.0553 99.5828 41.323 100.06C40.1451 100.856 39.6357 102.512 40.1133 103.912C40.75 105.823 41.3549 106.014 47.2764 106.014H52.5293V110.916C52.5293 113.591 52.6885 116.233 52.8795 116.774C53.3252 118.048 54.4394 118.748 56.0312 118.748C57.0818 118.748 57.5594 118.557 58.2916 117.825L59.2148 116.902V111.458V106.014H64.6588H70.1027L71.026 105.09C72.8088 103.276 71.9811 100.347 69.466 99.6465C68.8293 99.4873 66.2506 99.3281 63.7674 99.3281H59.2148V94.0434V88.7586L58.2916 87.8353C57.5275 87.1031 57.0818 86.9121 55.9676 86.9121C55.1717 86.9121 54.3121 87.1668 53.8982 87.4852Z" fill="black"/>
</svg>
