<svg width="210" height="166" viewBox="0 0 210 166" fill="none" xmlns="http://www.w3.org/2000/svg">
<path d="M22.6406 0.842965C20.2617 1.7832 18.7031 3.08007 17.4727 5.1875L16.6113 6.64648L16.4883 82.0273C16.4063 135.199 16.5293 157.895 16.8574 159.094C17.4317 161.396 19.4414 163.666 21.9024 164.865L23.9121 165.838L93.6797 165.935L163.406 166L165.58 165.157C166.77 164.703 168.369 163.73 169.189 162.985C171.814 160.586 171.855 160.229 171.855 142.364V126.348L177.434 118.696C180.51 114.482 183.258 110.721 183.586 110.332L184.16 109.618L186.539 110.721C189.287 112.05 190.682 112.147 192.199 111.077C193.061 110.526 193.348 110.007 193.348 109.164C193.348 107.641 192.568 106.992 188.508 105.177C186.662 104.334 185.104 103.62 185.022 103.555C184.939 103.491 185.842 102.096 187.072 100.443C188.959 97.7844 189.246 97.1684 189.41 95.2555C189.615 92.8887 188.754 90.9109 186.908 89.5492C185.719 88.6738 175.383 83.9727 173.496 83.4539L172.061 83.0648L171.855 44.6773L171.65 6.32226L170.707 4.79843C169.6 3.04765 167.508 1.45898 165.129 0.616012C163.529 0.0324181 160.658 -3.8147e-06 94.0899 -3.8147e-06H24.7734L22.6406 0.842965ZM162.668 5.80351C165.006 7.03554 164.883 4.63632 164.883 46.266C164.883 84.3617 164.883 84.5238 164.063 85.1074C163.57 85.4641 162.258 86.9879 161.109 88.5766C159.961 90.1328 158.895 91.4297 158.689 91.4297C158.484 91.4297 156.803 90.7164 154.875 89.8086C151.266 88.1227 149.379 87.7984 147.984 88.6414C146.426 89.5492 146.221 91.8836 147.615 92.8238C147.984 93.0832 149.215 93.7316 150.404 94.2504L152.537 95.1906L146.549 103.361L140.561 111.531H103.441H66.2813L65.3379 112.245C64.3945 112.925 64.1074 114.417 64.6406 115.584C65.3789 117.043 65.0918 117.043 101.883 117.043H136.541L131.865 123.43L127.189 129.85L96.5918 130.012L65.9531 130.174L65.1738 130.952C64.0664 132.022 64.1484 133.74 65.4199 134.713L66.4043 135.523H94.7461C110.291 135.523 123.047 135.588 123.047 135.653C123.047 135.75 122.883 136.172 122.637 136.626C121.037 140.03 121.406 144.375 123.662 148.038C127.928 154.977 139.248 157.862 148.313 154.328C152.414 152.739 152.947 152.188 162.34 139.414L164.883 136.01V146.968C164.883 156.662 164.801 158.057 164.186 158.867C162.791 160.748 167.139 160.65 94.1719 160.65C29.6543 160.65 26.7832 160.618 25.6758 160.067C23.2149 158.77 23.3789 164.087 23.4609 82.5461L23.584 7.81367L24.4453 6.90586C24.8965 6.41953 25.9219 5.83593 26.7012 5.60898C27.7676 5.31718 43.8047 5.21992 94.9512 5.28476C151.881 5.34961 161.93 5.41445 162.668 5.80351ZM168.574 102.518L177.967 106.798L177.105 107.965C176.654 108.581 175.26 110.526 173.988 112.245L171.691 115.389L170.051 114.611C169.107 114.19 164.965 112.309 160.781 110.396C156.598 108.484 153.029 106.83 152.865 106.668C152.455 106.376 158.238 98.2383 158.813 98.2383C159.018 98.2383 163.406 100.151 168.574 102.518ZM157.869 118.145C159.141 119.215 159.961 121.582 160.248 125.019C160.576 128.942 159.961 130.855 157.828 132.768C154.834 135.459 150.855 136.399 146.959 135.394C141.586 133.967 138.387 129.461 139.863 125.311C140.561 123.333 143.268 120.998 146.385 119.669C152.045 117.302 156.188 116.751 157.869 118.145ZM147.164 144.666C148.313 145.218 149.297 145.769 149.297 145.931C149.297 146.644 146.221 148.816 144.252 149.497C136.869 152.059 128.666 147.876 128.707 141.554C128.707 140.452 128.994 138.96 129.404 138.247L130.061 136.885L137.525 140.289C141.627 142.17 145.975 144.148 147.164 144.666Z" fill="black"/>
<path d="M86.9121 16.4379C84.8613 17.443 84.3281 18.6426 84.1641 22.598L84 26.2617H79.4883C72.0234 26.2617 71.3672 26.8777 71.3672 33.9457C71.3672 38.193 71.4492 38.8738 72.1875 39.8141C73.377 41.3703 75.1406 41.8242 79.8984 41.8242H83.959L84.1641 45.5527C84.3281 48.6328 84.4922 49.4434 85.1484 50.1891C86.707 51.8426 88.2656 52.1992 94.1309 52.1992C100.201 52.1992 101.678 51.8426 103.236 49.9621C104.057 48.9894 104.18 48.4707 104.18 45.3582V41.8242H108.65C112.588 41.8242 113.244 41.7269 114.475 41.0785C116.854 39.8465 117.305 38.6469 117.264 34.043C117.264 29.3094 116.813 28.0125 114.885 27.0074C113.654 26.3266 112.998 26.2617 108.855 26.2617H104.18V22.8574C104.18 18.8695 103.646 17.5078 101.637 16.5351C100.447 15.9516 99.5859 15.8867 94.1309 15.8867C89.168 15.8867 87.7734 16.0164 86.9121 16.4379Z" fill="black"/>
<path d="M39.7441 70.0312L38.5137 71.0039L38.6367 77.0019C38.8008 85.0101 38.0625 84.459 48.3984 84.459C58.7344 84.459 57.9961 85.0101 58.1602 77.0019L58.2832 71.0039L57.0527 70.0312L55.8633 69.0586H48.3984H40.9336L39.7441 70.0312ZM51.2695 76.8398V79.1094H48.3984H45.5273V76.8398V74.5703H48.3984H51.2695V76.8398Z" fill="black"/>
<path d="M66.2402 74.6352C64.1484 75.5105 63.6973 77.8125 65.3379 79.0445L66.2813 79.7578H105.041H143.842L144.703 79.0121C145.605 78.2664 145.893 76.8074 145.359 75.7051C144.621 74.2137 145.113 74.2461 104.918 74.2461C78.2988 74.2785 66.8145 74.3758 66.2402 74.6352Z" fill="black"/>
<path d="M40.6055 88.2848C38.7188 89.0305 38.5137 89.841 38.6367 96.0336C38.8008 103.782 38.1035 103.264 48.3985 103.264C58.7754 103.264 58.0371 103.847 58.0371 95.6445C58.0371 87.5066 58.6934 88.0578 48.8906 87.9281C43.5996 87.8633 41.3438 87.9605 40.6055 88.2848ZM51.2695 95.6445V97.9141H48.3985H45.5274V95.6445V93.375H48.3985H51.2695V95.6445Z" fill="black"/>
<path d="M65.2969 93.7965C64.0664 94.834 64.1074 96.6172 65.3379 97.525L66.2813 98.2383H105.123C143.432 98.2383 143.965 98.2383 144.785 97.5898C145.318 97.1684 145.605 96.5199 145.605 95.6445C145.605 94.7691 145.318 94.1207 144.785 93.6992C143.965 93.0508 143.432 93.0508 105.082 93.0508H66.1582L65.2969 93.7965Z" fill="black"/>
<path d="M41.1797 106.895C40.6875 106.96 39.9492 107.316 39.5391 107.705C38.8418 108.289 38.7598 109.067 38.6367 114.32L38.5137 120.285L39.7441 121.258L40.9336 122.23H48.3984H55.8633L57.0527 121.258L58.2832 120.285L58.1602 114.287C57.9961 106.344 58.6113 106.862 49.0957 106.765C45.2402 106.765 41.6309 106.798 41.1797 106.895ZM51.2695 114.449V116.719H48.3984H45.5273V114.449V112.18H48.3984H51.2695V114.449Z" fill="black"/>
<path d="M39.7441 126.413C38.8008 127.029 38.7598 127.191 38.6367 133.059L38.5137 139.09L39.7441 140.062L40.9336 141.035H48.3984H55.8633L57.0527 140.062L58.2832 139.09L58.1602 133.059C57.9961 125.213 58.7754 125.797 48.3984 125.797C41.4258 125.797 40.6055 125.862 39.7441 126.413ZM51.2695 133.254V135.523H48.3984H45.5273V133.254V130.984H48.3984H51.2695V133.254Z" fill="black"/>
<path d="M149.789 123.689C146.344 125.051 145.975 125.375 145.729 127.256C145.523 128.585 145.605 128.78 146.959 129.85C148.559 131.114 150.158 131.309 152.127 130.53C153.645 129.882 154.219 128.747 154.219 126.186C154.219 123.625 153.891 122.555 153.193 122.555C152.906 122.555 151.389 123.073 149.789 123.689Z" fill="black"/>
</svg>
