<svg width="256" height="250" viewBox="0 0 256 250" fill="none" xmlns="http://www.w3.org/2000/svg">
<path d="M192.5 36.0352C186.525 37.1582 181.25 42.0166 179.75 47.7295C178.675 51.8311 179.225 56.1768 181.375 60.4736C183.575 64.8926 189.05 72.2168 193.425 76.6357L195.5 78.7354L198.1 76.1475C204.475 69.7754 210.425 60.8154 211.65 55.7861C211.875 54.834 212.05 53.0762 212.05 51.8799C212.05 47.29 210.6 43.7988 207.375 40.625C205.2 38.4766 203.85 37.5977 201.275 36.6699C199.9 36.1572 199.1 36.0596 196.375 35.9863C194.6 35.9619 192.85 35.9863 192.5 36.0352ZM199.65 43.3594C201.65 44.2627 203.775 46.4111 204.525 48.2666C205 49.3896 205.1 50.1465 205.1 52.002C205.1 54.126 205.05 54.4678 204.325 55.9326C202.825 58.9355 199.9 60.9375 196.55 61.2061C192.825 61.499 189.625 60.0098 187.625 57.0312C184.725 52.71 185.975 46.7041 190.35 43.9941C193.1 42.3096 196.8 42.041 199.65 43.3594Z" fill="black"/>
<path d="M193.5 48.4619V50.0488H191.5H189.5V51.8799V53.711H191.35H193.225L193.375 54.8584C193.45 55.5176 193.55 56.2012 193.575 56.3965C193.625 56.8115 195.55 57.0313 196.925 56.7627C197.75 56.6162 197.75 56.6162 197.75 55.1758V53.711H199.75H201.75V51.8799V50.0733L199.825 50L197.875 49.9268L197.8 48.3887L197.725 46.875H195.625H193.5V48.4619Z" fill="black"/>
<path d="M125.775 37.2559C125.275 37.4512 121.95 40.4785 117.9 44.3848C114.05 48.0957 105.15 56.6895 98.15 63.4766C76.125 84.7656 61.35 98.9502 51.625 108.179C42.225 117.09 42.5 116.748 42.5 119.067C42.525 121.289 44.125 123.462 46.175 123.999C46.775 124.17 50.9 124.268 57.075 124.268H67L66.95 142.432C66.9 152.417 66.9 160.571 66.95 160.522C67 160.498 68.525 157.373 70.35 153.613C75.425 143.188 78.325 137.866 82.65 131.104C83.7 129.419 84.9 127.417 85.3 126.66L86 125.269L84.3 123.584C81.15 120.532 75.475 111.328 74.75 108.081C74.35 106.348 74.675 104.59 75.725 102.979C76.65 101.562 77.775 100.732 80.15 99.7314C81.9 98.9746 82.125 98.8037 82.925 97.4854C85.275 93.6279 89.325 92.4316 94.65 94.0186C96.125 94.458 96.275 94.458 97.9 94.0918C100.025 93.5791 103.925 93.5791 105.55 94.0674C106.6 94.3848 106.9 94.3848 108.65 93.9697C111.775 93.2373 113.225 93.1641 114.95 93.6035C117.475 94.2139 118.675 95.1416 120.325 97.6562C121.075 98.8037 121.4 99.0723 122.65 99.5605C126.8 101.123 129 104.468 128.25 108.008C127.525 111.426 121.85 120.752 118.725 123.682L117.175 125.098L117.725 127.661C118.05 129.102 118.65 131.787 119.075 133.667L119.85 137.085L119.925 158.374L120.025 179.688H131.75H143.475L143.55 162.28L143.65 144.897L144.325 142.456C144.7 141.113 145 139.844 145 139.624C145 139.404 144.55 138.379 144.025 137.354C142.325 134.082 142.225 133.301 142.3 123.999L142.375 115.796L143.125 114.6C144.225 112.891 145.6 112.183 147.875 112.207C149.05 112.207 149.9 112.354 150.5 112.671C151.8 113.33 155.025 115.454 155.8 116.138C156.45 116.748 156.6 116.772 159.475 116.772H162.475L163.55 115.869C165.25 114.429 168.425 112.622 169.775 112.305C172.275 111.719 174.6 112.598 175.875 114.6L176.625 115.796V124.731V133.667L175.675 135.913L174.725 138.159L175.25 139.16C175.975 140.576 177.25 141.675 181.45 144.629C183.475 146.069 185.825 147.729 186.7 148.34L188.25 149.438V136.865V124.268H197.525C203.775 124.268 207.15 124.17 207.95 123.975C209.675 123.56 211.35 121.851 211.75 120.068C212.025 118.945 212 118.53 211.65 117.358C211.25 116.016 210.875 115.649 171 76.8555C144.2 50.8057 130.45 37.5732 129.825 37.3047C128.65 36.792 126.925 36.7676 125.775 37.2559ZM126.5 71.0693V76.9043H120.275H114.075L114.3 75.6592C115.05 71.6553 117.725 68.1885 121.4 66.4062C122.85 65.6982 125.9 64.917 126.325 65.1123C126.425 65.1611 126.5 67.8467 126.5 71.0693ZM134.2 66.2842C136.7 67.4316 139.15 69.751 140.35 72.0947C141.25 73.8525 142 76.4893 141.675 76.8066C141.5 76.9775 129.7 76.9531 129.525 76.7822C129.475 76.709 129.375 74.0723 129.3 70.8984L129.175 65.1123L130.775 65.2832C131.8 65.3809 133.025 65.7227 134.2 66.2842ZM126.5 85.8154C126.5 90.4297 126.425 91.7969 126.2 91.7969C125.15 91.7725 122.4 90.918 121.05 90.1855C117.5 88.2324 115.025 84.8877 114.275 80.9814L114.075 79.834H120.275H126.5V85.8154ZM141.625 80.8594C141.2 83.5449 140.225 85.4248 138.125 87.6221C136.225 89.5996 133.85 90.918 131.325 91.4307C130.4 91.626 129.575 91.7236 129.5 91.6504C129.425 91.5771 129.325 88.8916 129.3 85.6689L129.2 79.834H135.5H141.8L141.625 80.8594ZM136.075 156.836C136.825 157.52 137.125 158.423 136.9 159.326C136.275 161.768 132.475 161.768 131.85 159.326C131.625 158.447 131.925 157.544 132.625 156.836C133.475 156.006 135.175 156.006 136.075 156.836Z" fill="black"/>
<path d="M71.95 37.8418C65.6 37.9639 65.525 37.9639 64.9 38.5498C64.375 39.0381 64.25 39.3799 64.25 40.3564C64.25 41.333 64.375 41.6504 64.975 42.2607L65.7 42.9688H72.425C78.625 42.9688 79.175 42.9199 79.925 42.4805C81.85 41.333 81.35 38.4521 79.1 37.8906C78.7 37.793 75.475 37.7686 71.95 37.8418Z" fill="black"/>
<path d="M87.85 38.0615C86.525 38.623 85.825 40.5273 86.5 41.7724C86.925 42.5049 88.2 43.042 89.15 42.8711C90.25 42.6514 91.25 41.4795 91.25 40.3808C91.25 38.8183 89.3 37.4756 87.85 38.0615Z" fill="black"/>
<path d="M37.075 48.2422C34.775 49.3652 34.6 53.0273 36.75 54.2969C37.375 54.6387 39.225 54.6875 55.25 54.6875C72.675 54.6875 73.075 54.6875 73.875 54.1992C75.925 52.9541 76 49.8779 74.05 48.4619C73.4 47.9736 72.925 47.9736 55.625 47.9248C39.725 47.8516 37.8 47.9004 37.075 48.2422Z" fill="black"/>
<path d="M40.575 59.8145C38.5 61.0352 38.475 64.4287 40.55 65.6738C41.35 66.1377 41.775 66.1621 54.375 66.1621C66.5 66.1621 67.45 66.1377 68.225 65.7227C70.45 64.5508 70.575 61.084 68.45 59.8145C67.65 59.3506 67.225 59.3262 54.5 59.3262C41.925 59.3262 41.35 59.3506 40.575 59.8145Z" fill="black"/>
<path d="M52.375 70.5322C50.475 71.3867 49.5 72.8516 49.5 74.8535C49.5 78.54 53.2 80.6641 56.7 78.9551C58.825 77.9297 59.95 75.4395 59.25 73.3887C58.35 70.6787 55.075 69.3115 52.375 70.5322Z" fill="black"/>
<path d="M88.85 96.6553C87.45 96.9971 86.625 97.6807 85.3 99.6338C84.15 101.27 83.75 101.636 82.675 102.1C78.55 103.906 77.9 104.517 77.875 106.787C77.875 108.423 78.9 110.522 82.225 115.649C85.175 120.215 86.375 121.631 87.75 122.168L88.75 122.559V125.195V127.832L87.6 129.517C82.8 136.499 77.475 146.265 70.675 160.596C66.4 169.604 65.3 172.461 64.625 176.343C64.5 177.173 64.425 177.246 63.8 177.1C60.575 176.367 57.825 173.877 56.575 170.483C55.85 168.506 55.825 166.382 56.525 164.16C57.1 162.329 57.05 161.108 56.325 160.352C53.425 157.227 47.575 160.62 45.425 166.699C44.725 168.677 44.55 173.364 45.1 175.635C46.25 180.371 49.9 185.352 54 187.793L55.5 188.672L51.1 188.77C46.825 188.843 46.7 188.867 46.225 189.429C45.575 190.21 45.625 191.309 46.375 192.017L46.975 192.627H135.75C214.65 192.627 224.6 192.578 225.25 192.261C226.05 191.846 226.4 191.016 226.15 190.039C225.8 188.745 225.425 188.721 211.475 188.721H198.7L199.325 187.988C200.275 186.89 201.2 184.814 201.775 182.446C202.5 179.517 202.325 175.024 201.4 171.631C200.6 168.799 198.475 164.551 196.7 162.231C193.475 158.032 190.075 155.054 180.875 148.315C174.95 143.994 173.25 142.432 171.975 140.259C171.125 138.818 171.075 138.257 171.725 137.158C172 136.719 172.5 135.498 172.85 134.473C173.5 132.617 173.5 132.52 173.5 124.756C173.5 115.894 173.45 115.625 171.875 115.332C170.475 115.088 168.05 116.382 165.825 118.53L164.025 120.288L162.825 120.093C161.1 119.824 158.325 119.824 156.7 120.117L155.275 120.386L154.1 119.141C152.625 117.603 149.525 115.552 148.375 115.332C147.225 115.137 146.125 115.601 145.75 116.431C145.55 116.919 145.5 119.482 145.55 125.146C145.65 134.204 145.65 134.229 147.775 137.695L148.825 139.429L148.175 141.431C146.875 145.337 146.925 144.678 146.975 164.795L147.05 183.716L146.4 184.912C145.95 185.718 145.75 186.475 145.75 187.28V188.477H143.875C142.85 188.477 142 188.403 142 188.281C142 188.184 142.325 187.061 142.725 185.791L143.425 183.472L132.425 183.398C126.375 183.374 121.375 183.374 121.325 183.423C121.275 183.472 121.65 184.595 122.125 185.889C122.6 187.183 123 188.354 123 188.477C123 188.623 122.15 188.721 121.125 188.721C120.1 188.721 119.25 188.647 119.25 188.525C119.25 188.428 119.15 187.72 119 186.938C118.825 185.84 118.525 185.181 117.625 184.033L116.475 182.544L116.5 160.303C116.55 138.501 116.525 138.013 116 135.376C115.7 133.887 115.225 131.812 114.95 130.737C114.3 128.271 114 125.513 114.175 123.73C114.3 122.461 114.375 122.363 115.05 122.217C116.2 121.997 118.15 119.8 120.525 116.064C123.75 110.986 125.25 108.105 125.25 106.909C125.25 105.054 123.95 103.369 122.05 102.759C120.1 102.148 118.85 101.074 117.05 98.5352C115.5 96.3379 113.025 95.9229 108.775 97.168C107.075 97.6562 106.95 97.6562 105.45 97.2656C103.45 96.7529 100.125 96.7529 97.9 97.2656C96.25 97.6562 96.1 97.6318 94.4 97.168C92.3 96.6064 89.95 96.3867 88.85 96.6553ZM113.875 100.708C115.1 102.759 117.35 104.834 119.4 105.835C121.175 106.689 121.3 106.787 121.15 107.422C121.025 108.057 117.025 114.868 115.45 117.139C114.85 117.993 114.575 118.188 114.075 118.115C113.725 118.066 113.2 117.725 112.9 117.358C112.4 116.699 112.375 116.309 112.3 110.352L112.225 104.053L111.35 103.052C110.85 102.49 110.35 102.1 110.225 102.197C109.55 102.588 109.125 104.004 109 106.177L108.875 108.472L108.125 108.569C106.8 108.716 106.05 109.155 105.65 109.985C105.125 111.035 105.15 112.427 105.675 113.306C106.075 113.965 107.775 114.99 108.45 114.99C108.625 114.99 108.75 115.137 108.75 115.283C108.75 115.454 109.025 117.188 109.375 119.116C110.075 123.022 109.975 124.072 108.875 125.146C108.15 125.854 106.625 125.928 105.425 125.342C104.4 124.829 103 123.535 103 123.096C103 122.9 103.575 122.144 104.25 121.411C105.675 119.897 105.85 119.067 104.925 118.018C104.375 117.383 104.25 117.358 101.725 117.358C98.85 117.358 98.125 117.603 97.725 118.579C97.375 119.507 97.85 120.63 99 121.68C99.55 122.192 100 122.803 100 123.096C100 124.463 96.65 126.294 95.175 125.757C93.275 125.049 92.85 123.413 93.5 119.482C93.775 117.896 94 116.235 94 115.82C94 115.137 94.1 115.015 95.075 114.771C96.275 114.429 96.725 114.136 97.325 113.281C97.95 112.402 97.9 110.352 97.225 109.546C96.7 108.862 95.075 108.301 94.425 108.545C94.1 108.667 94.025 108.276 93.95 106.152C93.875 104.004 93.8 103.516 93.3 102.832C92.975 102.417 92.65 102.051 92.55 102.051C92.45 102.051 92 102.588 91.575 103.223L90.75 104.395V110.522V116.65L90.1 117.407C89.3 118.335 88.725 118.359 87.95 117.48C87.075 116.455 82.05 108.13 81.875 107.373C81.7 106.763 81.8 106.665 83.55 105.835C85.65 104.858 87.725 103.003 88.875 101.074L89.625 99.8291L90.875 99.9756C91.575 100.049 93.05 100.391 94.2 100.757L96.275 101.392L97.95 100.928C100.1 100.342 103.325 100.342 105.425 100.928C106.9 101.343 107.025 101.343 108.3 100.928C109.025 100.684 110.425 100.317 111.375 100.073C112.35 99.8535 113.15 99.6582 113.175 99.6338C113.175 99.6094 113.5 100.098 113.875 100.708ZM151.1 121.289C152.175 122.437 153.175 123.706 153.325 124.097C153.375 124.243 154.15 124.048 155.125 123.657C157.55 122.705 161.025 122.656 163.625 123.535C164.6 123.877 165.45 124.146 165.525 124.146C165.6 124.146 166.35 123.315 167.175 122.314C168 121.313 168.925 120.264 169.2 120.02L169.75 119.556V125.391C169.75 128.589 169.625 131.714 169.475 132.324C168.825 135.132 166.65 137.842 164.075 139.087C162.925 139.624 162.225 139.771 160.375 139.844C156.4 140.015 153.5 138.77 151.375 135.962C149.475 133.447 149.25 132.3 149.25 125.439C149.25 118.848 149.1 119.189 151.1 121.289ZM102.475 125.464C102.875 125.83 103.575 126.294 104 126.465C104.4 126.636 104.75 126.904 104.75 127.051C104.75 127.661 103.5 129.858 103.025 130.103C102.4 130.444 100.875 130.444 100.25 130.127C99.75 129.858 98.925 128.687 98.525 127.612C98.275 127.002 98.325 126.929 99.2 126.489C99.7 126.245 100.4 125.732 100.725 125.391C101.075 125.049 101.425 124.756 101.525 124.756C101.625 124.756 102.05 125.073 102.475 125.464ZM94.55 132.544C98 134.814 102.175 135.254 106.025 133.789C107.475 133.228 108.225 132.788 109.65 131.689L110.675 130.884L110.975 131.885C111.675 134.106 112.5 139.6 112.5 141.821C112.475 148.706 109.35 154.37 102.425 159.985C100.675 161.401 99.425 162.622 99.175 163.159C98.8 163.916 98.75 165.21 98.75 174.316C98.75 184.204 98.775 184.668 99.25 185.425C99.525 185.864 99.825 186.719 99.9 187.354L100.075 188.477H96.425C91.575 188.477 91.975 189.062 90.775 180.054C90.375 176.953 89.525 170.801 88.9 166.382C88.275 161.938 87.625 157.056 87.45 155.518L87.1 152.71L86.55 153.906C85.7 155.737 85.05 157.959 84.75 160.205C84.35 162.915 84.575 165.161 85.65 169.653C85.775 170.215 85.7 170.19 84.775 169.36C83.7 168.433 81.85 167.407 80.65 167.139C79.95 166.968 79.95 166.992 81.075 168.213C81.7 168.896 82.55 170.093 82.925 170.85C83.55 172.07 83.625 172.51 83.625 174.561C83.625 177.856 82.9 178.955 79.45 180.957C77.525 182.056 75.625 183.765 74.925 184.985L74.475 185.767L75.55 185.303C77.2 184.619 79.55 184.253 81.675 184.375C84.175 184.521 85.5 185.156 86.375 186.597C87.55 188.599 87.95 188.501 79.575 188.428L72.125 188.354L71.075 186.816C69.475 184.473 68.875 182.373 68.9 178.955C68.9 174.561 69.55 172.754 75.2 160.889C81.625 147.388 85.725 139.844 91.5 130.933L91.875 130.371L92.625 131.079C93.025 131.445 93.9 132.104 94.55 132.544ZM169.25 143.604C171.225 146.558 173.7 148.828 179.75 153.247C182.7 155.42 186.275 158.179 187.675 159.399C194.425 165.283 197.6 170.85 197.925 177.368C198.125 181.47 197.3 184.375 195.325 186.523C193.425 188.574 194.15 188.477 182 188.477C170.125 188.477 170.875 188.599 171.6 186.938C172.4 185.01 174.75 184.155 178.4 184.424C179.5 184.497 180.95 184.717 181.625 184.937C182.3 185.132 182.9 185.229 182.975 185.181C183.025 185.107 182.5 184.497 181.775 183.813C180.2 182.349 178.275 181.421 176.375 181.226C174.675 181.055 174.25 180.591 173.625 178.369C173.075 176.392 173.25 175.049 174.325 173.315C175.35 171.655 177.3 170.312 179.5 169.775C181.8 169.214 185.1 169.409 187.15 170.215C190.125 171.411 193.075 173.828 194.325 176.074C194.925 177.173 194.9 176.294 194.275 174.512C193.55 172.461 193.125 171.777 191.45 170.044C189.05 167.505 185.875 166.26 181.925 166.26C177.275 166.26 172.525 168.677 170.05 172.339C168.125 175.146 167.525 177.148 167.325 181.396C167.25 183.203 167.05 185.01 166.875 185.425C166.7 185.815 166.1 186.67 165.5 187.305L164.45 188.477H162.35H160.25L160.225 179.248C160.225 174.194 160.2 169.629 160.15 169.141C160.075 168.14 159.3 166.846 157.525 164.795C154.55 161.353 152.6 158.276 151.575 155.396C150.95 153.638 150.9 153.101 150.875 150.024C150.875 147.192 150.975 146.216 151.475 144.409C151.8 143.188 152.1 142.139 152.175 142.017C152.225 141.919 152.575 142.065 152.925 142.31C154.875 143.823 159.65 144.482 162.925 143.701C163.85 143.457 165.3 142.92 166.125 142.48C166.95 142.017 167.675 141.65 167.75 141.626C167.825 141.626 168.5 142.505 169.25 143.604ZM113.2 185.059C114.075 185.571 114.75 186.816 114.75 187.866V188.477H110.3H105.875L105.3 186.816C104.725 185.229 104.725 184.937 104.8 178.223C104.875 171.631 104.9 171.191 105.45 169.873C106.45 167.432 108.125 165.259 110.75 162.988L112.125 161.792L112.25 173.193L112.375 184.57L113.2 185.059ZM52.325 164.453C51.725 165.796 51.725 169.36 52.35 171.143C53.15 173.462 54.5 175.586 56.35 177.368C58.375 179.321 60.05 180.298 62.725 181.055L64.575 181.567L65 183.276C65.25 184.204 65.625 185.376 65.85 185.889C66.425 187.256 66.4 187.329 65.075 187.158C57.35 186.108 51.8 182.202 49.75 176.367C48.2 171.973 48.85 167.334 51.425 164.551C52.05 163.867 52.6 163.354 52.65 163.403C52.725 163.452 52.575 163.916 52.325 164.453ZM153.225 169.507C153.925 170.703 154.9 172.437 155.375 173.364L156.25 175.049L156.2 180.249L156.125 185.425L153.775 186.963C150.925 188.818 150.35 188.867 150.425 187.256C150.475 186.304 150.6 186.035 151.525 185.254L152.55 184.326L151.9 184.082L151.25 183.838V175.122C151.25 167.725 151.3 166.479 151.575 166.87C151.775 167.139 152.5 168.335 153.225 169.507Z" fill="black"/>
<path d="M153.25 128.174C152.175 129.224 153 131.348 154.475 131.348C155.25 131.348 156.25 130.298 156.25 129.468C156.25 128.638 156.05 128.345 155.325 127.954C154.525 127.563 153.825 127.612 153.25 128.174Z" fill="black"/>
<path d="M163.075 128.32C162.575 128.809 162.475 129.077 162.6 129.712C163.025 131.812 165.725 131.812 166.15 129.712C166.275 129.077 166.175 128.809 165.675 128.32C165.3 127.954 164.725 127.686 164.375 127.686C164.025 127.686 163.45 127.954 163.075 128.32Z" fill="black"/>
<path d="M158.45 132.593C157.375 132.983 157.275 134.009 158.275 134.546C159.275 135.059 158.525 137.183 157.325 137.231C156.95 137.231 156.95 137.28 157.375 137.451C157.725 137.573 158.175 137.476 158.8 137.134C159.675 136.67 159.775 136.67 160.2 137.036C160.45 137.256 161.05 137.451 161.5 137.451H162.325L161.475 136.89C161 136.597 160.525 136.035 160.375 135.645C160.175 135.034 160.225 134.888 160.825 134.424C161.75 133.691 161.7 133.105 160.625 132.666C159.65 132.275 159.4 132.275 158.45 132.593Z" fill="black"/>
<path d="M30.525 188.989C29.875 189.062 29.3 189.307 29.1 189.575C28.55 190.283 28.675 191.357 29.375 192.017C29.975 192.627 30.025 192.627 34.425 192.627C38.125 192.627 39 192.554 39.45 192.236C40.65 191.431 40.65 189.819 39.45 189.185C38.85 188.843 32.6 188.721 30.525 188.989Z" fill="black"/>
<path d="M122.675 202.148C120.35 202.734 118.325 204.224 117.3 206.152C116.75 207.202 116.625 207.715 116.625 209.351C116.625 211.743 117.275 213.086 119.325 215.063L120.7 216.357L120.775 213.355C120.875 210.571 120.925 210.23 121.55 209.18C122.4 207.788 124.25 206.787 126 206.787C127 206.787 127.2 206.689 127.45 206.177C127.775 205.469 129.85 204.102 130.575 204.102C131.375 204.102 130.675 203.516 128.975 202.759C127.275 202.026 124.35 201.733 122.675 202.148Z" fill="black"/>
<path d="M160 202.148C155.875 203.003 152.675 206.348 151.95 210.547C151.075 215.698 154.775 220.679 160.25 221.68C161.825 221.973 163.525 221.802 165.425 221.167C172.6 218.774 174.475 209.741 168.85 204.614C166.45 202.417 163.175 201.514 160 202.148ZM161.175 206.592C161.925 207.275 162.1 208.276 161.65 209.302C161.2 210.4 160.225 211.035 159.375 210.84C158.525 210.62 158.5 209.717 159.35 209.717C160.525 209.717 161.1 208.594 160.5 207.495C160.15 206.885 159.25 206.885 159.075 207.52C158.925 208.032 158.15 208.179 157.85 207.739C157.775 207.593 157.825 207.227 158 206.909C158.625 205.762 160.1 205.615 161.175 206.592ZM167 206.909C167 207.397 167.125 207.52 167.625 207.52C168.125 207.52 168.25 207.642 168.25 208.105C168.25 208.789 167.1 209.814 166.55 209.595C166.05 209.424 161.2 214.185 161.4 214.673C161.55 215.088 160.125 216.797 159.625 216.797C159.45 216.797 159.25 216.577 159.175 216.284C159.075 215.894 158.9 215.82 158.525 215.942C157.925 216.113 157.9 216.089 158.25 215.21C158.475 214.624 158.45 214.575 158 214.722C157.625 214.844 157.5 214.771 157.5 214.404C157.5 213.525 158.95 212.866 159.575 213.477C159.9 213.818 160.25 213.574 162.6 211.304C165.025 208.984 165.225 208.716 165.1 208.057C164.975 207.495 165.075 207.227 165.525 206.812C166.325 206.104 167 206.128 167 206.909Z" fill="black"/>
<path d="M195 202.246C194.375 202.417 193.475 202.734 193 202.93C190.85 203.833 188.525 206.47 187.825 208.74C187.275 210.474 187.3 213.623 187.85 215.088C188.85 217.773 191.325 220.239 193.95 221.216C195.8 221.875 198.85 221.948 200.7 221.338C203.625 220.386 206.2 218.018 207.325 215.283C207.725 214.282 207.85 213.452 207.85 211.67C207.85 209.57 207.775 209.204 207.1 207.764C205.975 205.469 204.575 204.028 202.375 202.979C200.75 202.197 200.25 202.075 198.325 202.002C196.975 201.953 195.7 202.051 195 202.246ZM202.125 207.031C203.3 207.739 203.875 209.033 203.525 210.205C202.525 213.452 197.75 212.866 197.75 209.473C197.75 208.374 198.425 207.3 199.325 206.909C200.45 206.421 201.175 206.47 202.125 207.031ZM194.35 207.983C194.9 208.545 195.025 208.887 194.975 209.57C194.9 210.425 195.025 210.62 197.175 212.744C198.725 214.233 199.6 214.941 199.825 214.819C200.275 214.575 201.35 215.112 201.45 215.649C201.525 215.967 201.35 216.064 200.75 216.064C200.05 216.064 199.975 216.138 200.1 216.553C200.175 216.821 200.325 217.261 200.4 217.529C200.6 218.14 200.1 218.164 199.275 217.554C198.95 217.31 198.675 216.821 198.65 216.406C198.6 215.869 198.05 215.186 196.3 213.501C195.025 212.28 193.95 211.279 193.9 211.23C193.85 211.182 193.55 211.304 193.275 211.475C192.825 211.743 192.625 211.743 192.075 211.426C191.325 211.011 190.525 209.839 190.8 209.57C190.9 209.497 191.275 209.644 191.65 209.937C192.5 210.596 192.675 210.571 192.65 209.888C192.625 209.497 192.775 209.326 193.2 209.277C193.85 209.18 193.9 208.813 193.35 208.228C192.975 207.813 193.05 207.275 193.475 207.275C193.575 207.275 193.975 207.593 194.35 207.983Z" fill="black"/>
<path d="M199.425 208.203C198.85 208.813 198.875 210.278 199.45 210.767C200.6 211.792 202.5 210.889 202.5 209.326C202.5 207.935 200.375 207.178 199.425 208.203Z" fill="black"/>
<path d="M51.4 203.638C50.225 205.005 50.725 207.837 52.275 208.643C52.9 208.936 53.1 208.936 53.825 208.643C55.05 208.154 55.425 207.129 55.05 205.347C54.55 202.954 52.725 202.1 51.4 203.638Z" fill="black"/>
<path d="M57.875 203.467C57.15 204.175 56.65 205.859 56.85 207.007C57.3 209.79 60.85 209.155 61.175 206.226C61.25 205.615 61.25 204.834 61.15 204.468C60.75 202.905 59 202.368 57.875 203.467Z" fill="black"/>
<path d="M87.675 203.223C85.3 204.077 83.825 206.348 84.05 208.716C84.225 210.547 84.475 210.718 86.7 210.645L88.6 210.571L89.35 208.521C89.95 206.885 90.15 206.567 90.35 206.885C90.5 207.08 91.125 208.081 91.75 209.082C92.375 210.107 92.925 210.938 93 210.938C93.075 210.938 93.7 209.937 94.375 208.74C95.025 207.52 95.675 206.616 95.75 206.714C95.85 206.836 96.25 207.715 96.625 208.667L97.325 210.449H98.35C98.925 210.449 99.775 210.522 100.25 210.596C101.05 210.718 101.175 210.669 101.45 210.107C101.95 209.009 101.825 206.787 101.175 205.688C100.45 204.443 98.775 203.223 97.55 203.003C96.125 202.783 94.525 203.271 93.575 204.248C92.85 205.029 92.775 205.054 92.625 204.59C92.425 203.979 90.875 203.174 89.575 203.003C89.05 202.93 88.225 203.027 87.675 203.223Z" fill="black"/>
<path d="M47.3 208.301C45.725 209.985 46.8 213.379 48.925 213.379C50.075 213.379 51.25 212.28 51.25 211.182C51.25 208.691 48.725 206.836 47.3 208.301Z" fill="black"/>
<path d="M62.3 208.154C61.35 208.789 60.875 210.083 60.975 211.743C61.025 212.5 62.15 213.379 63.05 213.379C64.5 213.354 65.5 212.158 65.5 210.449C65.5 208.862 64.75 207.764 63.675 207.764C63.225 207.764 62.6 207.935 62.3 208.154Z" fill="black"/>
<path d="M129.925 208.35C129.275 208.521 128.475 208.887 128.175 209.155C127.875 209.424 127.175 209.741 126.625 209.839C126.075 209.912 125.375 210.156 125.075 210.352C124.525 210.693 124.5 210.815 124.5 215.039V219.385L126.075 220.898L127.65 222.437L128.75 221.411C129.35 220.85 130.675 219.8 131.725 219.043C135.5 216.357 136.1 215.479 135.95 212.866C135.875 211.499 135.725 211.011 135.125 210.181C133.875 208.472 132 207.812 129.925 208.35Z" fill="black"/>
<path d="M94.275 212.427L93.175 214.648L92.675 213.721C91.95 212.28 90.725 210.449 90.5 210.449C90.4 210.449 90.1 210.986 89.85 211.67C89.425 212.817 88.975 213.184 88.65 212.671C88.5 212.427 86.5 212.183 86.5 212.402C86.5 212.476 87.9 213.892 89.625 215.576L92.75 218.604L93.8 217.627C97.275 214.453 99.25 212.524 99.25 212.354C99.25 211.963 98.05 212.158 97.425 212.646L96.8 213.135L96.35 211.987C95.6 209.961 95.475 209.985 94.275 212.427Z" fill="black"/>
<path d="M54.7 211.206C54.025 211.45 50.45 215.308 49.7 216.602C49.4 217.139 49.35 217.505 49.525 218.066C50.025 219.824 50.95 220.068 54.2 219.312C55.925 218.921 56.125 218.921 57.625 219.312C60.6 220.093 62 219.751 62.475 218.115C62.75 217.163 62.35 216.187 61.25 215.21C60.8 214.795 59.95 213.867 59.35 213.11C57.825 211.182 56.425 210.596 54.7 211.206Z" fill="black"/>
</svg>
