<svg width="200" height="188" viewBox="0 0 200 188" fill="none" xmlns="http://www.w3.org/2000/svg">
<path d="M93.801 1.18321C93.0832 1.24895 90.8972 1.47902 88.9397 1.64335C68.5155 3.64825 48.6786 12.1937 33.0832 25.735C19.217 37.7972 8.8744 54.1979 4.40458 71.3874C2.18598 79.9657 1.79446 83.1538 1.79446 93.8357C1.79446 102.25 1.89234 103.86 2.54487 107.64C5.67701 125.914 13.7031 142.019 26.46 155.593C40.1958 170.219 59.2822 180.638 79.7716 184.68C87.0799 186.127 91.1909 186.488 100.163 186.488C109.135 186.488 113.246 186.127 120.555 184.68C137.977 181.229 153.997 173.44 167.243 161.936C181.109 149.874 191.452 133.473 195.922 116.284C198.14 107.706 198.532 104.517 198.532 93.8357C198.532 85.4217 198.434 83.8112 197.781 80.0315C194.649 61.7573 186.623 45.6524 173.866 32.0783C158.075 15.2503 136.15 4.53566 111.746 1.64335C108.679 1.28182 96.0848 0.953144 93.801 1.18321ZM113.377 4.07552C125.22 5.78461 135.367 8.90699 145.514 14.0014C170.995 26.8524 188.907 49.3664 194.617 75.7916C195.987 82.0035 196.509 87.0979 196.509 93.8357C196.509 127.623 176.933 158.025 145.024 173.867C138.238 177.252 132.659 179.323 125.775 181.098C108.548 185.502 91.7782 185.502 74.5514 181.098C67.6672 179.323 62.0881 177.252 55.3018 173.867C36.6069 164.599 22.0228 150.334 13.018 132.487C4.14357 114.936 1.56608 94.9203 5.70964 75.7916C11.354 49.6622 29.0375 27.214 54.062 14.3958C65.6118 8.44685 77.2268 5.06154 90.9299 3.61538C95.0734 3.18811 109.103 3.48391 113.377 4.07552Z" fill="black"/>
<path d="M124.046 29.3503C123.524 29.9748 123.034 32.4399 123.002 34.3462C123.002 35.2336 122.839 36.5483 122.643 37.2056L122.316 38.4545H120.424C116.117 38.4545 113.638 40.065 110.604 44.7979L108.842 47.5916L103.589 47.7231C96.8679 47.8874 95.9543 48.1832 95.2039 50.451C94.5514 52.3245 94.4535 55.7755 94.9755 57.649C95.4323 59.3252 97.4552 61.4944 99.739 62.6776C100.783 63.2364 103.719 64.4524 106.297 65.4056C111.843 67.4434 114.486 69.0538 115.824 71.2231C116.378 72.0776 116.803 73.0308 116.803 73.3594C116.803 73.6881 116.901 73.951 117.064 73.951C117.194 73.9839 122.447 72.242 128.744 70.1385L140.228 66.293L139.609 64.1895C139.282 63.0392 138.271 58.6678 137.325 54.4608C134.16 40.0322 131.452 34.0503 126.493 30.2378C124.535 28.7587 124.535 28.7587 124.046 29.3503Z" fill="black"/>
<path d="M132.953 72.6692C128.842 74.0825 123.263 75.8573 120.555 76.6133C117.879 77.3692 115.628 77.9937 115.595 78.0266C115.595 78.0266 115.237 79.8343 114.878 82.0035C114.486 84.1727 113.083 91.1077 111.778 97.451C108.026 115.331 106.884 122.759 106.493 131.962C106.003 143.169 108.32 152.372 112.887 157.532L114.584 159.406L139.282 159.34L163.948 159.241L166.134 158.157C169.755 156.349 171.06 154.147 172.985 146.587L174.127 142.15L173.409 136.3C172.985 133.079 172.594 130.351 172.463 130.252C171.909 129.661 169.723 133.605 167.374 139.521C165.253 144.78 164.339 146.653 162.904 148.625C161.99 149.907 160.065 151.517 159.478 151.517C159.38 151.517 159.217 149.447 159.119 146.916C158.564 134.722 156.085 120.097 152.039 105.109C151.126 101.79 148.548 92.9482 146.297 85.4545C144.046 77.9608 142.088 71.4531 141.958 70.993C141.827 70.5 141.468 70.1713 141.077 70.1385C140.75 70.1056 137.096 71.2559 132.953 72.6692Z" fill="black"/>
<path d="M79.1844 78.4538C74.8777 88.1497 73.7684 95.3476 75.2366 104.123C75.3997 105.109 75.726 105.701 76.3459 106.161C78.1403 107.476 85.4813 110.631 90.6689 112.406L93.4421 113.359L94.2904 111.65C94.8777 110.434 95.726 109.48 97.2268 108.297C102.284 104.386 103.426 102.611 103.426 98.7657C103.426 96.9252 103.393 96.8266 101.925 95.5448C101.109 94.8217 99.5759 92.9483 98.5318 91.3706C96.5742 88.4455 94.845 86.6706 93.3442 86.0462C92.8875 85.849 91.4193 85.586 90.1142 85.4874L87.7325 85.2902L86.6558 82.5294C85.4813 79.6042 84.0131 77.7636 82.3165 77.0406C80.4894 76.2517 80.0979 76.4161 79.1844 78.4538Z" fill="black"/>
<path d="M72.8875 110.598C59.2496 117.796 49.3312 129.924 44.1762 145.667C43.6542 147.278 43.0995 148.559 42.9038 148.559C42.7406 148.559 41.6966 148.132 40.6199 147.606C36.0849 145.47 36.3132 142.808 41.5661 134.788C44.8614 129.792 45.4486 128.346 45.3181 125.29C45.155 121.838 44.0131 119.571 40.9788 116.481C37.1289 112.636 32.2349 110.828 27.9935 111.715L26.1012 112.11V113.852V115.594L29.9511 118.092C34.1925 120.885 35.9217 122.463 36.7048 124.303C37.8793 127.196 37.0636 129.299 33.279 132.849C30.1142 135.873 29.5922 137.155 29.7553 141.296C29.8532 143.991 30.0163 144.78 30.832 146.423C32.6591 150.269 36.4111 153.259 44.2741 157.236L48.6134 159.406H68.7439H88.8744L90.9625 158.354C92.9201 157.335 93.018 157.236 92.8548 156.283C91.4519 148.395 91.4519 126.637 92.8548 118.486C93.018 117.5 92.9854 117.434 89.6575 115.857C87.7977 115.002 83.9152 113.129 80.9788 111.715L75.6607 109.152L72.8875 110.598Z" fill="black"/>
</svg>
