<svg width="164" height="162" viewBox="0 0 164 162" fill="none" xmlns="http://www.w3.org/2000/svg">
<g clip-path="url(#clip0_79_22)">
<path d="M152.949 0.632833C152.116 1.04416 144.557 8.25822 132.001 20.693C112.622 39.8356 112.302 40.1203 111.501 39.7406C108.746 38.3801 106.376 38.9496 103.461 41.6391L101.315 43.6324L99.5851 41.8922C97.6633 39.9305 96.8305 39.4242 95.0687 39.1078C92.3461 38.6332 91.7055 39.0445 84.05 46.575L76.9711 53.5043L76.7789 50.5617C75.9781 37.9055 66.2086 26.5149 53.1719 23.066C49.5523 22.0852 41.0961 21.9903 37.7969 22.8762C33.2805 24.1102 28.668 26.1985 26.8742 27.8754C25.6891 28.9828 25.593 30.5649 26.682 31.5774C27.8031 32.6215 29.0203 32.4317 31.6148 30.8813C39.5906 26.1352 50.0008 26.0086 58.1047 30.5016C64.0305 33.7922 68.3547 39.0445 70.6609 45.7207C71.3976 47.8406 71.5578 48.9481 71.6859 52.5235C71.8781 57.8391 71.2695 60.6235 68.8672 65.4012C67.5859 67.9641 66.7211 69.1664 64.6711 71.318C59.1617 77.0766 52.8516 79.8293 45.1641 79.8293C34.6578 79.7977 25.5289 74.0074 20.9805 64.452C19.3789 61.0981 18.8344 58.8516 18.6742 54.4852C18.45 49.4543 19.2187 45.9738 21.493 41.5758C23.1906 38.2535 23.3828 37.1778 22.4859 36.0703C21.7492 35.1528 19.8273 35.0895 18.8664 35.9438C17.8734 36.8297 15.1828 42.4934 14.35 45.4043C13.7734 47.5559 13.6453 48.7899 13.6453 53.4727C13.6133 59.5477 13.9656 61.4145 16.0476 66.2238C19.0906 73.343 26.2016 80.0508 33.6328 82.8668C36.3234 83.911 40.2953 84.7969 42.3453 84.8285C45.2922 84.8602 45.3242 84.8285 38.3094 91.7262L31.807 98.1492L30.5578 97.3582C27.6109 95.4598 25.3047 95.9027 21.9414 99.0985C18.3219 102.484 17.5211 104.193 18.2578 106.945C18.5781 108.084 19.4109 109.097 22.9344 112.641L27.1945 116.944L23.4469 120.646L19.6992 124.348L16.4961 121.184C12.3961 117.102 10.8906 116.311 7.5914 116.501C3.04296 116.722 0.288273 119.443 0.0640541 123.936C-0.160165 127.955 -0.480477 127.543 17.5211 145.262C35.3305 162.791 34.5617 162.19 38.6937 161.937C41.5445 161.779 43.5945 160.639 45.0039 158.393C45.7726 157.127 45.9648 156.431 46.0609 154.501C46.2531 151.242 45.4523 149.755 41.3203 145.705L38.1172 142.541L41.8648 138.839L45.6125 135.137L49.9687 139.345C53.5562 142.826 54.5812 143.648 55.7344 143.965C58.5211 144.693 60.2508 143.902 63.6781 140.326C66.9133 137.004 67.3617 134.726 65.4398 131.815L64.6391 130.581L94.268 101.282C120.854 74.9883 123.961 71.8559 124.281 70.6219C124.666 69.1981 124.473 67.4262 123.769 66.1289C123.545 65.686 122.584 64.5785 121.591 63.6293L119.829 61.9207L121.847 59.7692C123.448 58.0922 123.961 57.3328 124.249 56.0672C124.634 54.4852 124.409 52.7449 123.641 51.5742C123.416 51.1945 125.242 49.2328 132.289 42.2403C140.361 34.2352 141.258 33.2543 141.258 32.3367C141.258 30.9445 140.041 29.7422 138.631 29.7422C137.702 29.7422 136.709 30.6281 128.702 38.5067L119.797 47.3028L117.939 45.4676L116.113 43.6641L135.652 24.3633C154.166 6.07502 155.255 5.06252 156.345 5.06252C157.818 5.06252 158.875 6.10666 158.875 7.59377C158.875 8.57463 158.202 9.334 151.508 15.9785C144.621 22.8129 144.141 23.3824 144.141 24.4266C144.141 25.8188 145.294 26.8946 146.799 26.8946C147.664 26.8946 148.785 25.9453 155.255 19.5223C159.9 14.9977 162.975 11.6754 163.359 10.8844C164.224 9.14416 164.224 5.79025 163.391 4.17658C162.623 2.68947 161.277 1.36057 159.772 0.601193C158.106 -0.221464 154.679 -0.221464 152.949 0.632833ZM107.305 56.7633L119.637 68.9766L116.818 71.7293L114.031 74.5137L111.02 71.5395C108.362 68.9133 107.913 68.5969 106.824 68.5653C105.895 68.5336 105.447 68.7235 104.87 69.4195C103.525 70.9383 103.781 71.6028 107.209 75.0516L110.316 78.1524L106.664 81.791L102.98 85.4297L99.9375 82.4238C97.1828 79.7344 96.7664 79.418 95.7094 79.418C94.3 79.418 93.2109 80.557 93.2109 82.0442C93.2109 82.8035 93.7875 83.5629 96.2539 86.0309L99.2969 89.1L95.6773 92.6438L92.0898 96.1559L89.0148 93.1817C86.3562 90.5871 85.7797 90.1758 84.8828 90.1758C83.4094 90.1758 82.3203 91.2199 82.3203 92.6438C82.3203 93.593 82.7047 94.1309 85.3633 96.7887L88.4062 99.8578L84.7226 103.465L81.0391 107.072L77.9 104.003C74.4726 100.68 73.8 100.396 72.2625 101.598C71.6219 102.104 71.4297 102.516 71.4297 103.528C71.4297 104.73 71.6219 105.015 74.3766 107.8L77.3234 110.774L73.7359 114.318L70.1484 117.861L67.1055 114.855C64.3828 112.198 63.9664 111.881 62.9094 111.881C62.0125 111.881 61.5641 112.103 60.9555 112.799C59.6742 114.254 60.0906 115.204 63.518 118.589L66.4648 121.5L63.6461 124.284L60.8594 127.037L48.143 114.444L35.3945 101.883L44.5234 92.8652C52.1789 85.3031 53.8445 83.7844 54.9336 83.4996C56.9516 82.9617 61.1476 80.9051 63.3898 79.3231C66.3687 77.2348 69.6359 73.9442 71.6539 70.9383C73.3516 68.407 75.5937 63.7559 75.5937 62.7117C75.5937 62.427 79.7258 58.0922 84.7867 53.093C91.9617 45.9738 94.0758 44.0754 94.4601 44.2969C94.7484 44.4551 100.514 50.0555 107.305 56.7633ZM114.608 49.4543C120.117 54.9598 119.957 54.5168 117.491 56.8582L116.113 58.2188L110.572 52.7449L105.03 47.2711L106.792 45.5942C108.234 44.2653 108.682 44.0121 109.13 44.2653C109.451 44.4235 111.917 46.7649 114.608 49.4543ZM44.5234 118.178L61.6601 135.105L59.7383 137.004C58.6812 138.048 57.6242 138.902 57.3359 138.902C56.7273 138.902 23.3828 105.996 23.3828 105.363C23.3828 104.952 26.8101 101.25 27.2266 101.25C27.3226 101.25 35.1062 108.875 44.5234 118.178ZM38.2133 135.169L34.4336 138.902L28.9242 133.46L23.3828 127.986L27.1305 124.284L30.9101 120.551L36.4195 125.993L41.9609 131.467L38.2133 135.169ZM25.2086 137.099L41 152.666V154.027C41 155.893 39.943 156.938 38.0531 156.938H36.6758L20.9164 141.339L5.12499 125.771V124.411C5.12499 122.544 6.18202 121.5 8.07187 121.5H9.44921L25.2086 137.099Z" fill="black"/>
<path d="M49.1039 51.3211L39.0781 61.193L35.1383 57.3328C31.1344 53.441 30.5578 53.093 28.9883 53.6625C28.2195 53.9789 27.4828 55.6242 27.707 56.6051C27.8351 57.1746 29.4687 59.0098 32.2875 61.7941C35.907 65.3063 36.9 66.0973 37.8609 66.2871C40.7437 66.825 40.6156 66.9199 51.9867 55.7508C61.1476 46.7016 62.493 45.2461 62.6531 44.2336C62.8133 43.2844 62.7172 42.9363 62.0445 42.2719C61.468 41.7023 60.8594 41.4492 60.1547 41.4492C59.1937 41.4492 58.1687 42.3668 49.1039 51.3211Z" fill="black"/>
</g>
<defs>
<clipPath id="clip0_79_22">
<rect width="164" height="162" fill="white"/>
</clipPath>
</defs>
</svg>
