<svg width="1152" height="390" viewBox="0 0 1152 390" fill="none" xmlns="http://www.w3.org/2000/svg">
<path d="M3.86578 193.674V382.041H574.067H1144.27V193.674V5.3063H574.067H3.86578V193.674ZM131.436 43.7757V79.592H68.6175H5.79867V43.7757V7.95935H68.6175H131.436V43.7757ZM405.906 43.7757V79.592H269.638H133.369V43.7757V7.95935H269.638H405.906V43.7757ZM661.047 43.7757V79.592H534.443H407.839V43.7757V7.95935H534.443H661.047V43.7757ZM914.255 43.7757V79.592H788.617H662.98V43.7757V7.95935H788.617H914.255V43.7757ZM1142.34 43.7757V79.592H1029.26H916.188V43.7757V7.95935H1029.26H1142.34V43.7757ZM131.436 119.388V156.531H68.6175H5.79867V119.388V82.2451H68.6175H131.436V119.388ZM405.906 119.388V156.531H269.638H133.369V119.388V82.2451H269.638H405.906V119.388ZM661.047 119.388V156.531H534.443H407.839V119.388V82.2451H534.443H661.047V119.388ZM914.255 119.388V156.531H788.617H662.98V119.388V82.2451H788.617H914.255V119.388ZM1142.34 119.388V156.531H1029.26H916.188V119.388V82.2451H1029.26H1142.34V119.388ZM131.436 195V230.817H68.6175H5.79867V195V159.184H68.6175H131.436V195ZM405.906 195V230.817H269.638H133.369V195V159.184H269.638H405.906V195ZM661.047 195V230.817H534.443H407.839V195V159.184H534.443H661.047V195ZM914.255 195V230.817H788.617H662.98V195V159.184H788.617H914.255V195ZM1142.34 195V230.817H1029.26H916.188V195V159.184H1029.26H1142.34V195ZM131.436 269.286V305.102H68.6175H5.79867V269.286V233.47H68.6175H131.436V269.286ZM405.906 269.286V305.102H269.638H133.369V269.286V233.47H269.638H405.906V269.286ZM661.047 269.286V305.102H534.443H407.839V269.286V233.47H534.443H661.047V269.286ZM914.255 269.286V305.102H788.617H662.98V269.286V233.47H788.617H914.255V269.286ZM1142.34 269.286V305.102H1029.26H916.188V269.286V233.47H1029.26H1142.34V269.286ZM131.436 343.572V379.388H68.6175H5.79867V343.572V307.755H68.6175H131.436V343.572ZM405.906 343.572V379.388H269.638H133.369V343.572V307.755H269.638H405.906V343.572ZM661.047 343.572V379.388H534.443H407.839V343.572V307.755H534.443H661.047V343.572ZM914.255 343.572V379.388H788.617H662.98V343.572V307.755H788.617H914.255V343.572ZM1142.34 343.572V379.388H1029.26H916.188V343.572V307.755H1029.26H1142.34V343.572Z" fill="black"/>
</svg>
