<svg width="190" height="184" viewBox="0 0 190 184" fill="none" xmlns="http://www.w3.org/2000/svg">
<g clip-path="url(#clip0_79_14)">
<path d="M74.0332 0.682888C70.8789 1.79695 69.2832 2.73133 67.2051 4.70789C64.793 7.04383 62.8262 10.8173 62.3437 14.0516C62.1582 15.3095 61.9727 23.5391 61.9355 32.3438L61.8984 48.336L58.6328 50.9594C56.8144 52.3969 54.1055 55.0204 52.6211 56.7813L49.9121 59.9438L33.3984 59.9798C24.3066 60.0157 15.8086 60.1954 14.5098 60.3751C9.68554 61.0219 4.11914 64.6516 2.15234 68.461C0.222652 72.0548 -3.8147e-06 73.3844 -3.8147e-06 80.6798C-3.8147e-06 87.4001 0.0371056 87.5798 0.853512 88.3344C2.04101 89.4126 4.08203 89.3766 5.12109 88.2985C5.86328 87.5079 5.9375 87.1126 5.9375 82.4407C5.9375 76.9423 6.38281 73.8516 7.42187 71.8751C8.38671 70.0782 10.6504 68.1016 12.8027 67.1313C14.6211 66.3048 14.8809 66.3048 30.1699 66.1969C38.668 66.1251 45.6445 66.161 45.6445 66.2329C45.6445 66.3048 44.9023 67.886 44.0117 69.7548C42.1934 73.5282 40.4121 79.2423 39.6699 83.5548C39.0391 87.2563 39.0391 96.7438 39.6699 100.445C40.4121 104.758 42.1934 110.472 44.0117 114.245C44.9023 116.114 45.6445 117.695 45.6445 117.767C45.6445 117.839 38.668 117.875 30.1699 117.803C14.8809 117.695 14.6211 117.695 12.8027 116.869C10.6504 115.899 8.38671 113.922 7.42187 112.125C6.3457 110.077 5.9375 106.986 5.9375 100.445C5.9375 94.4798 5.90039 94.2641 5.08398 93.5094C3.89648 92.4313 1.85546 92.4673 0.816402 93.5454C0.0371056 94.336 -3.8147e-06 94.6594 -3.8147e-06 102.314C-3.8147e-06 110.688 0.185543 111.838 2.15234 115.539C4.11914 119.349 9.68554 122.978 14.5098 123.625C15.8086 123.805 24.3066 123.984 33.3984 124.02L49.9121 124.056L52.6211 127.219C54.1055 128.98 56.8144 131.603 58.6328 133.041L61.8984 135.664L61.9355 151.656C61.9727 160.461 62.1582 168.691 62.3437 169.949C63.0117 174.62 66.7598 180.011 70.6934 181.916C74.9238 184.036 74.5898 184 95 184C115.41 184 115.076 184.036 119.307 181.916C123.24 180.011 126.988 174.62 127.656 169.949C127.842 168.691 128.027 160.461 128.064 151.656L128.102 135.664L131.367 133.041C133.186 131.603 135.895 128.98 137.379 127.219L140.088 124.056L156.602 124.02C165.693 123.984 174.191 123.805 175.49 123.625C180.314 122.978 185.881 119.349 187.848 115.539C190.037 111.442 190 111.766 190 92.0001C190 72.2344 190.037 72.5579 187.848 68.461C185.881 64.6516 180.314 61.0219 175.49 60.3751C174.191 60.1954 165.693 60.0157 156.602 59.9798L140.088 59.9438L137.379 56.7813C135.895 55.0204 133.186 52.3969 131.367 50.9594L128.102 48.336L128.064 39.6391C128.027 30.8704 127.842 29.4329 126.617 28.5344C125.578 27.7438 123.648 27.9235 122.646 28.9298C121.719 29.7923 121.719 29.8282 121.719 37.0157C121.719 40.9688 121.645 44.2032 121.57 44.2032C121.533 44.2032 119.9 43.4844 117.971 42.6219C114.074 40.861 108.174 39.136 103.721 38.4173C99.8984 37.8063 90.1016 37.8063 86.2793 38.4173C81.8262 39.136 75.9258 40.861 72.0293 42.6219C70.0996 43.4844 68.4668 44.2032 68.3926 44.2032C68.3184 44.2032 68.2812 37.4469 68.3555 29.1813C68.4668 14.411 68.4668 14.1595 69.3203 12.3985C70.3223 10.3141 72.3633 8.12195 74.2187 7.18758C76.7051 5.92976 79.5254 5.75008 95 5.75008C113.74 5.75008 115.225 5.9657 118.453 9.23601C120.791 11.572 121.459 13.5485 121.645 18.5798C121.793 22.6407 121.867 23.0001 122.684 23.7548C123.871 24.8329 125.949 24.797 127.062 23.7548C127.693 23.1079 127.879 22.461 127.953 20.0173C128.25 13.3688 126.543 8.33758 122.795 4.70789C120.68 2.65945 119.084 1.76101 115.818 0.682888C113.963 0.036013 112.479 7.5531e-05 94.8516 0.036013C77.6328 0.036013 75.7031 0.107888 74.0332 0.682888ZM104.203 44.7423C121.57 48.0126 136.08 60.1954 141.906 76.4751C143.91 82.1173 144.504 85.5673 144.504 92.0001C144.504 98.3969 143.91 101.883 141.906 107.525C136.896 121.541 125.541 132.538 111.031 137.425C105.205 139.366 101.643 139.941 95 139.941C88.3574 139.941 84.7949 139.366 78.9687 137.425C64.459 132.538 53.1035 121.541 48.0937 107.525C46.0898 101.883 45.4961 98.3969 45.4961 92.0001C45.4961 85.6032 46.0898 82.1173 48.0937 76.4751C50.6172 69.3594 54.4766 63.4657 60.0801 58.0751C68.2812 50.1329 78.1894 45.5329 90.1758 44.0594C92.6621 43.7719 101.16 44.1673 104.203 44.7423ZM177.197 67.1313C180.76 68.7126 182.912 71.4438 183.654 75.2891C184.211 78.1282 184.211 105.872 183.654 108.711C182.912 112.556 180.76 115.288 177.197 116.869C175.379 117.695 175.119 117.695 159.867 117.803C151.332 117.875 144.355 117.839 144.355 117.767C144.355 117.695 145.098 116.114 145.988 114.245C147.807 110.472 149.588 104.758 150.33 100.445C150.59 98.8641 150.812 95.0548 150.812 92.0001C150.812 88.9454 150.59 85.136 150.33 83.5548C149.588 79.2423 147.807 73.5282 145.988 69.7548C145.098 67.886 144.355 66.3048 144.355 66.2329C144.355 66.161 151.332 66.1251 159.867 66.1969C175.119 66.3048 175.379 66.3048 177.197 67.1313ZM72.0293 141.378C75.9258 143.139 81.8262 144.864 86.2793 145.583C87.9121 145.834 91.8457 146.05 95 146.05C98.1543 146.05 102.088 145.834 103.721 145.583C108.174 144.864 114.074 143.139 117.971 141.378C119.9 140.516 121.533 139.797 121.607 139.797C121.682 139.797 121.719 146.553 121.645 154.783C121.533 169.589 121.533 169.841 120.68 171.602C119.047 175.052 116.227 177.136 112.256 177.855C109.324 178.394 80.6758 178.394 77.7441 177.855C73.7734 177.136 70.9531 175.052 69.3203 171.602C68.4668 169.841 68.4668 169.589 68.3555 154.783C68.2812 146.553 68.3184 139.797 68.3926 139.797C68.4668 139.797 70.0996 140.516 72.0293 141.378Z" fill="black"/>
<path d="M97.2266 55.8828C92.9219 57.0328 89.4336 60.4469 88.0976 64.6875C87.3183 67.1672 87.3183 72.7016 88.1348 75.6125C90.2871 83.5547 96.2246 86.4297 103.387 83.0156C108.99 80.3562 113.926 73.5641 113.926 68.4969C113.926 66.4125 112.998 63.1422 111.922 61.525C108.842 56.7453 102.719 54.4094 97.2266 55.8828ZM103.35 62.1359C107.135 63.7891 108.582 67.9578 106.652 71.6234C105.057 74.5703 100.27 78.3437 98.0801 78.3437C95.6308 78.3437 93.7383 74.8578 93.7383 70.2578C93.7012 65.9453 95.4082 63.0703 98.5625 61.9922C100.492 61.3094 101.568 61.3453 103.35 62.1359Z" fill="black"/>
<path d="M70.248 59.2969C64.0137 60.5547 59.8574 66.5563 61.1562 72.5219C62.1582 77.1219 66.0918 82.3328 69.9512 84.0938C72.2891 85.1359 75.7031 85.2438 77.4473 84.3453C80.416 82.8 83.0137 78.9547 83.9043 74.7859C84.1269 73.7078 84.2383 71.5156 84.1641 69.8984C83.9785 66.4484 82.791 63.9688 80.2305 61.7766C77.7441 59.6563 73.5879 58.6141 70.248 59.2969ZM75.4805 66.0531C77.2617 67.0594 78.0039 68.7844 77.8555 71.6953C77.707 74.4984 76.2226 78.0563 74.8867 78.7391C73.8105 79.3141 72.2519 78.5594 70.3594 76.5109C67.3164 73.2406 66.5371 70.4016 67.9473 67.9578C69.5058 65.2625 72.623 64.4719 75.4805 66.0531Z" fill="black"/>
<path d="M117.822 76.4391C113.777 77.8766 110.363 80.3922 107.877 83.8422C105.836 86.6453 105.02 88.8016 105.02 91.2812C105.02 97.3906 110.771 101.344 119.678 101.38C125.17 101.416 128.213 100.409 131.033 97.6062C139.086 89.7 133.928 76.5828 122.498 75.9719C120.383 75.8281 119.195 75.9719 117.822 76.4391ZM124.242 82.4766C124.984 82.8 126.023 83.4109 126.506 83.8422C127.508 84.7406 128.732 87.1484 128.77 88.2266C128.77 90.5625 127.1 93.3297 124.984 94.3719C122.275 95.7375 116.746 95.5937 113.74 94.1203C111.885 93.2219 111.328 92.5031 111.328 91.2094C111.328 87.7953 117.822 81.9375 121.607 81.9375C122.312 81.9375 123.463 82.1891 124.242 82.4766Z" fill="black"/>
<path d="M79.6367 85.3875C71.2871 86.8609 62.6777 91.4609 60.4512 95.6656C60.043 96.4562 59.5976 97.8937 59.4863 98.8641C59.3008 100.409 59.4492 100.984 60.5996 103.248C62.3808 106.734 63.9394 108.387 67.9473 111.047C72.2148 113.886 74.6269 116.222 77.5586 120.355C80.2676 124.2 81.9746 125.709 85.5 127.434C88.3574 128.8 89.2109 128.908 92.0312 128.081C99.8613 125.817 106.578 108.639 104.092 97.2828C102.607 90.4547 98.7851 86.7891 91.6601 85.3156C88.6172 84.7047 83.4219 84.7406 79.6367 85.3875ZM91.4375 91.5328C94.3691 92.3234 96.8184 94.5875 97.6348 97.2109C98.4512 99.9781 98.2656 106.591 97.2637 110.148C95.8906 115.108 93.0703 120.211 90.918 121.792C89.8418 122.547 89.6191 122.583 88.5801 122.152C86.7988 121.433 84.3496 119.097 82.2715 116.078C79.9707 112.736 75.9258 108.783 72.7344 106.734C67.9844 103.716 65.3125 100.517 66.0176 98.7203C66.6855 97.0312 70.9531 94.3359 75.3691 92.8625C81.1211 90.8859 87.2812 90.3828 91.4375 91.5328Z" fill="black"/>
<path d="M113.592 105.117C106.986 106.914 103.387 111.406 104.648 116.366C105.576 120.139 109.918 124.416 114.557 126.177C120.717 128.477 127.174 126.248 130.031 120.822C132.814 115.539 130.439 108.531 124.873 105.728C123.314 104.937 122.461 104.794 119.307 104.686C116.82 104.614 114.928 104.758 113.592 105.117ZM122.498 111.514C123.277 112.017 124.02 112.987 124.465 113.994C125.096 115.503 125.133 115.862 124.687 117.156C124.094 118.953 122.201 120.642 120.42 120.966C116.895 121.577 109.918 116.509 110.771 113.922C111.291 112.341 115.299 110.759 118.787 110.723C120.754 110.687 121.496 110.867 122.498 111.514Z" fill="black"/>
</g>
<defs>
<clipPath id="clip0_79_14">
<rect width="190" height="184" fill="white"/>
</clipPath>
</defs>
</svg>
